<?xml version="1.0" standalone="no"?>
<!DOCTYPE svg PUBLIC "-//W3C//DTD SVG 1.1//EN" "http://www.w3.org/Graphics/SVG/1.1/DTD/svg11.dtd" >
<svg xmlns="http://www.w3.org/2000/svg">
<metadata></metadata>
<defs>
<font id="somersby_header_2009regular" horiz-adv-x="997" >
<font-face units-per-em="2048" ascent="1536" descent="-512" />
<missing-glyph horiz-adv-x="450" />
<glyph horiz-adv-x="0" />
<glyph horiz-adv-x="682" />
<glyph unicode=" "  horiz-adv-x="450" />
<glyph unicode="&#x09;" horiz-adv-x="450" />
<glyph unicode="&#xa0;" horiz-adv-x="450" />
<glyph unicode="!" horiz-adv-x="440" d="M47 154q0 72 51.5 122t122.5 50q35 0 66.5 -13.5t55.5 -37t37 -54.5t13 -67q0 -37 -13 -68t-37 -54.5t-55.5 -36.5t-66.5 -13q-72 0 -123 50t-51 122zM57 1436h236q43 0 72.5 -29t29.5 -78l-43 -913h-166q-45 0 -72.5 29.5t-29.5 84.5q0 12 -2 58.5t-4 113t-4 146.5 t-4 162q-6 190 -13 426z" />
<glyph unicode="&#x22;" horiz-adv-x="778" d="M51 1536h182q41 0 72 -25.5t31 -72.5l-1 -8q-1 -9 -4 -54t-9.5 -139t-18.5 -268h-129q-41 0 -71.5 25.5t-30.5 72.5q0 10 -1 35.5t-3 60.5t-3.5 77t-3.5 83q-6 98 -10 213zM442 1536h183q41 0 71.5 -25.5t30.5 -72.5l-1 -8q-1 -9 -4 -54t-9 -139t-19 -268h-129 q-41 0 -71.5 25.5t-30.5 72.5q0 10 -1 35.5t-3 60.5t-3 77t-3 83q-6 98 -11 213z" />
<glyph unicode="#" horiz-adv-x="1419" d="M61 383v49q0 31 10.5 60.5t30 53t49 39t68.5 15.5h90l25 279h-244v49q0 31 10.5 60.5t30 53t49 39t68.5 15.5h104q6 72 11.5 134t9.5 109q4 53 8 99h133q45 0 73.5 -30t28.5 -85q0 -14 -4 -74.5t-12 -152.5h274q6 72 11.5 134t9.5 109q4 53 8 99h133q45 0 74 -30t29 -85 q0 -14 -4.5 -74.5t-12.5 -152.5h236v-49q0 -31 -10.5 -61t-31 -53.5t-49 -38.5t-67.5 -15h-94l-23 -279h246v-49q0 -31 -10 -60.5t-30.5 -53t-49.5 -39t-68 -15.5h-106q-8 -82 -13 -150.5t-10 -121.5q-6 -61 -10 -111h-133q-45 0 -73.5 29.5t-28.5 85.5q0 14 4 86.5 t14 181.5h-272q-8 -82 -13.5 -150.5t-9.5 -121.5q-6 -61 -10 -111h-133q-45 0 -74 29.5t-29 85.5q0 14 4.5 86.5t14.5 181.5h-232zM561 600h270l25 279h-272z" />
<glyph unicode="$" horiz-adv-x="903" d="M37 322v180q37 6 96.5 8t99.5 -8q72 -20 89.5 -59.5t17.5 -86.5q0 -63 14.5 -105t55.5 -56v391q-29 20 -64 44.5t-69.5 49.5t-66.5 48.5t-54 41.5q-37 31 -68 81t-41 132q-10 104 6 199q23 119 111 192.5t246 83.5v176q2 0 8 1t18 1q31 -2 51.5 -39.5t20.5 -105.5v-33 q150 -10 242 -81.5t94 -221.5q0 -18 1 -46t1 -54.5v-48v-29.5q-41 -10 -89 -10t-100 16q-41 14 -71.5 41t-30.5 76q0 59 -12.5 92t-34.5 49v-360q29 -20 61.5 -42t61 -42.5t51.5 -37t33 -24.5q55 -47 98 -107t49 -169q4 -41 2 -101.5t-10 -103.5q-27 -135 -104.5 -201.5 t-241.5 -79.5v-172q-33 0 -45 1l-12 1h7h13q-29 4 -45 42t-16 104v22q-102 2 -174 29t-116 73t-63.5 108.5t-19.5 140.5zM342 1118q0 -72 17.5 -108.5t50.5 -63.5v301q-29 -10 -46.5 -41t-21.5 -88zM508 201q27 16 38 51.5t11 101.5q4 66 -8 102t-41 62v-317z" />
<glyph unicode="%" horiz-adv-x="1239" d="M39 1071v70q0 129 63.5 188.5t186.5 59.5q125 0 187.5 -59.5t62.5 -188.5v-70q0 -127 -62.5 -186.5t-187.5 -59.5q-123 0 -186.5 59.5t-63.5 186.5zM244 1030q0 -37 12 -51t33 -14q23 0 35 14t12 51v152q0 39 -12.5 52t-34.5 13q-20 0 -32.5 -13t-12.5 -52v-152z M353.5 65q-17.5 37 0.5 91q4 12 25.5 72.5t53.5 149.5t71 199.5t80 223.5q94 264 213 596q-2 0 3 -1t34 -12q41 -16 58 -53t-1 -88q-4 -12 -26.5 -72.5t-54.5 -150.5t-72 -200.5t-79 -223.5q-96 -266 -210 -596q-53 18 -65.5 23.5t-6.5 3.5l21 -7l16 -6q-43 14 -60.5 51z M700 258v70q0 127 62.5 186t187.5 59q123 0 186.5 -59t63.5 -186v-70q0 -129 -63.5 -188.5t-186.5 -59.5q-125 0 -187.5 59.5t-62.5 188.5zM903 217q0 -39 12.5 -53t34.5 -14q20 0 32.5 14t12.5 53v152q0 37 -12 51t-33 14q-23 0 -35 -14t-12 -51v-152z" />
<glyph unicode="&#x26;" horiz-adv-x="1157" d="M43 416q0 160 77 274.5t212 204.5q-68 111 -94.5 181.5t-26.5 123.5q0 74 25.5 132.5t71.5 99.5t109.5 62.5t139.5 21.5q82 0 141.5 -25t99.5 -65t59.5 -91t19.5 -106q0 -111 -58.5 -209t-169.5 -172l201 -346l119 160q23 -18 45 -35q18 -14 36.5 -28.5t28.5 -23.5 q29 -20 32 -51.5t-21 -66.5l-119 -158q2 0 2 -2l59 -96l4 -8q16 -27 30.5 -49.5t25.5 -39.5q12 -20 22 -36q-35 -20 -65 -37q-27 -16 -51.5 -29.5t-36.5 -21.5q-29 -16 -60 -8t-53 42l-51 80l-4 -2q-66 -61 -142 -90t-178 -29t-182 33t-135.5 91.5t-84 139t-28.5 179.5z M301 446q0 -53 16.5 -98t44 -78.5t65.5 -53t79 -19.5q53 0 94 18t86 66l-240 411q-66 -47 -105.5 -114.5t-39.5 -131.5zM453 1241q0 -31 5 -53.5t21 -50.5l58 -97l26 25q47 43 68.5 78t21.5 88q0 45 -27.5 74.5t-70.5 29.5q-45 0 -73.5 -26.5t-28.5 -67.5z" />
<glyph unicode="'" horiz-adv-x="387" d="M51 1536h182q41 0 72 -25.5t31 -72.5l-1 -8q-1 -9 -4 -54t-9.5 -139t-18.5 -268h-129q-41 0 -71.5 25.5t-30.5 72.5q0 10 -1 35.5t-3 60.5t-3.5 77t-3.5 83q-6 98 -10 213z" />
<glyph unicode="(" horiz-adv-x="555" d="M16 705q0 123 19.5 246.5t51.5 238.5t72 213t81 170q20 33 35.5 55.5t32 34.5t38 17.5t51.5 5.5q25 0 48.5 -3.5t41.5 -7.5q23 -4 41 -8q-35 -70 -74.5 -159t-74.5 -202.5t-58.5 -257t-23.5 -323.5t22.5 -323.5t55.5 -257t71.5 -202.5t71.5 -159q-18 -6 -41 -10 q-18 -4 -41.5 -6.5t-48.5 -2.5q-31 0 -52.5 5.5t-37.5 17.5t-31.5 33.5t-36.5 56.5q-41 72 -79.5 164t-68.5 199.5t-47.5 225.5t-17.5 239z" />
<glyph unicode=")" horiz-adv-x="555" d="M16 -217q35 70 75 159t75 202.5t58.5 257t23.5 323.5t-22.5 323.5t-55.5 257t-72 202.5t-71 159q18 4 41 8q18 4 41.5 7.5t48.5 3.5q31 0 51 -5.5t37.5 -17.5t33 -34.5t35.5 -55.5q41 -72 80 -164t69 -199.5t47 -225.5t17 -239q0 -123 -19.5 -246.5t-51 -238.5 t-71.5 -213t-81 -170q-20 -35 -35.5 -56.5t-33 -33.5t-38 -17.5t-51.5 -5.5q-25 0 -48 2.5t-42 6.5q-23 4 -41 10z" />
<glyph unicode="*" horiz-adv-x="620" d="M45 1343l25 72l84 -31l86 -28v180h71q29 0 50.5 -26.5t21.5 -63.5v-90l168 65l24 -69q10 -29 -8 -58.5t-55 -40.5h-2l-88 -30l61 -76q27 -33 28 -69t-24 -54l-57 -45l-121 162l-112 -162l-60 45q-25 18 -24.5 53t24.5 68l60 76l-88 26q-35 10 -54.5 39t-9.5 57z" />
<glyph unicode="+" horiz-adv-x="1140" d="M31 573v70q0 31 10 60.5t29.5 53t49.5 39t68 15.5h248v457h156q49 0 81 -33t32 -92v-332h405v-70q0 -31 -10 -60.5t-30.5 -53t-49.5 -39t-68 -15.5h-247v-467h-156q-49 0 -81 33t-32 92v342h-405z" />
<glyph unicode="," horiz-adv-x="454" d="M61 -141q0 29 9.5 106.5t19.5 161.5q12 98 29 211h151q121 0 121 -92q0 -35 -8 -61.5t-14 -51.5l-121 -381h-66q-49 0 -85 24.5t-36 82.5z" />
<glyph unicode="-" horiz-adv-x="659" d="M68 606v119q0 31 10 60.5t29.5 53t49 39t68.5 15.5h367v-119q0 -31 -10.5 -60.5t-31 -53t-49 -39t-67.5 -15.5h-366z" />
<glyph unicode="." horiz-adv-x="432" d="M43 154q0 72 51 122t123 50q35 0 66.5 -13.5t55 -37t37 -54.5t13.5 -67q0 -37 -13.5 -68t-37 -54.5t-55 -36.5t-66.5 -13q-72 0 -123 50t-51 122z" />
<glyph unicode="/" horiz-adv-x="718" d="M68 80q0 8 3 28.5t7 32.5l346 1434h104q53 0 88 -16.5t35 -63.5q0 -8 -3 -28.5t-7 -32.5l-346 -1434h-105q-53 0 -87.5 16.5t-34.5 63.5z" />
<glyph unicode="0" horiz-adv-x="970" d="M61 297v823q0 98 38 165t99.5 107t139.5 57t160 17q113 0 190.5 -24.5t126.5 -68.5t71.5 -104.5t22.5 -131.5l-6 -840q0 -150 -105.5 -233.5t-297.5 -86.5q-96 -2 -176 11.5t-138.5 48.5t-91.5 98.5t-33 161.5zM375 315q0 -76 35.5 -102.5t74.5 -26.5q47 0 79 30t32 108 v790q0 18 -3 43t-14.5 45.5t-32 33.5t-54.5 13q-55 0 -86 -39t-31 -96v-799z" />
<glyph unicode="1" horiz-adv-x="585" d="M18 1151v123q84 0 125 31.5t60 126.5h200q49 0 81 -33t32 -92v-1307h-201q-49 0 -80.5 33t-31.5 92v944h-86q-55 0 -77 22.5t-22 59.5z" />
<glyph unicode="2" horiz-adv-x="919" d="M51 0v240q0 41 11.5 72.5t26.5 57t33.5 45t35.5 38.5q25 29 53.5 62.5t58 67t57 64.5t48.5 53q23 25 54.5 62t61 86t50 107.5t20.5 125.5q0 104 -30.5 139t-73.5 35q-53 0 -81 -30.5t-28 -122.5q0 -39 -21.5 -64.5t-53 -41t-68.5 -21.5t-66 -6q-41 0 -82 10v29.5v48 t1 54.5t1 46q4 162 110.5 233.5t276.5 71.5q223 0 329 -84t106 -270q0 -82 -27 -158t-62.5 -139t-73.5 -110.5t-63 -73.5q-31 -35 -72.5 -85t-85.5 -102.5t-85 -99.5t-70 -76l539 10v-106q0 -31 -10.5 -60.5t-31 -53t-49 -39t-67.5 -15.5h-672z" />
<glyph unicode="3" horiz-adv-x="923" d="M55 281v178q41 10 89.5 10t97.5 -16q41 -14 72.5 -40t31.5 -77q0 -92 26.5 -122t80.5 -30q45 0 77.5 53.5t36.5 129.5v20q0 68 -9 114t-33.5 74.5t-65.5 41t-105 12.5h-104v223q57 0 98 4t69.5 12.5t50 19.5t42.5 23q43 29 47 78t0 133q-2 76 -30.5 104.5t-71.5 28.5 q-53 0 -81 -29.5t-28 -121.5q0 -51 -30.5 -77t-73.5 -40q-49 -16 -97.5 -16t-89.5 10v29.5v48t1 54.5t1 46q4 160 109.5 231.5t277.5 71.5q180 0 279.5 -73.5t124.5 -202.5q16 -96 6 -199q-10 -82 -41 -126t-68 -73q-8 -6 -21 -14l-26 -16q10 -6 23.5 -13.5t23.5 -15.5 q37 -29 72 -86t45 -141q2 -25 3 -58.5t0 -67.5t-3 -65.5t-6 -56.5q-25 -129 -128 -204t-284 -75q-172 0 -278.5 73t-110.5 233z" />
<glyph unicode="4" horiz-adv-x="972" d="M10 317v158q0 41 4 68.5t10.5 48t13.5 36t15 34.5l416 768h246q47 0 75.5 -29t28.5 -101v-727h158v-88q0 -31 -10.5 -60.5t-31 -53t-49 -39t-67.5 -15.5v-317h-201q-49 0 -80.5 33t-31.5 92v192h-496zM260 573h246v469z" />
<glyph unicode="5" horiz-adv-x="940" d="M51 324v180q37 6 96.5 8t100.5 -8q72 -20 89 -59t17 -87q0 -78 21.5 -123t87.5 -45q57 0 81.5 35t26.5 131l4 201q-6 82 -43.5 108.5t-85.5 26.5h-258q-49 0 -80.5 33t-31.5 92v617h768v-109q0 -31 -10.5 -60.5t-31 -53t-49 -39t-67.5 -15.5h-346v-225q35 0 107.5 -1 t146.5 -1q127 0 201.5 -60.5t89.5 -175.5q4 -51 4 -117.5t-3 -131t-8.5 -117t-9.5 -72.5q-14 -76 -43.5 -129t-80 -87t-124 -50.5t-178.5 -16.5q-109 0 -183.5 26t-120.5 72t-66.5 110.5t-20.5 142.5z" />
<glyph unicode="6" d="M59 701q0 85 1 164t4.5 146.5t9.5 108.5q14 104 53 172t95.5 107t129 53t154.5 14h26q84 0 155 -25.5t121 -71.5t78.5 -110.5t31.5 -144.5q0 -18 1 -46t1 -54.5v-48v-29.5q-41 -10 -89.5 -10t-97.5 16q-41 14 -72.5 41t-31.5 76q0 45 1 81t-8.5 60.5t-32 36.5t-71.5 12 h-16q-55 0 -79 -39t-32 -96q-6 -39 -9 -119t-5 -176q18 6 85.5 20.5t176.5 14.5q127 0 202 -60.5t89 -175.5q12 -86 12 -161.5t-8 -139.5q-14 -125 -72.5 -200.5t-120.5 -98.5q-29 -12 -65 -20q-31 -8 -74 -13t-92 -5q-96 -2 -172 11t-131 48t-89 98.5t-44 161.5 q-4 37 -7.5 100.5t-5.5 140t-2 161.5zM377 496q2 -59 4 -106.5t6 -74.5q12 -72 41 -99.5t68 -27.5q53 0 84.5 42t37.5 110q4 37 4.5 82t-1.5 82q-4 82 -43 107.5t-86 25.5q-37 0 -59.5 -16.5t-35 -40t-16.5 -47t-4 -37.5z" />
<glyph unicode="7" horiz-adv-x="811" d="M10 1321v117h791l-248 -1266q-23 -98 -71 -135t-138 -37h-197l324 1153h-303q-39 0 -68.5 15.5t-49 39t-30 53t-10.5 60.5z" />
<glyph unicode="8" horiz-adv-x="966" d="M51 344v174q0 53 18.5 96t49.5 75t70.5 52.5t84.5 26.5v8q-41 8 -78.5 27.5t-66.5 51.5t-46 76t-17 101v88q0 102 40.5 168t104 105t139.5 53t144 14q80 0 153.5 -16.5t130 -54t90 -102t33.5 -163.5v-106q0 -41 -15.5 -81t-44 -73t-67.5 -56.5t-84 -31.5v-8 q45 -10 86 -24.5t72 -45t49 -82t18 -137.5v-143q0 -96 -35.5 -164t-96 -113t-140.5 -65.5t-170 -20.5q-193 0 -307.5 91.5t-114.5 279.5zM373 426q0 -35 2 -76t12 -75.5t32.5 -59.5t65.5 -25q41 0 62.5 25t32 59.5t12.5 75.5t2 76t-2 76t-13.5 76.5t-34 59.5t-61.5 24 q-41 0 -62.5 -24t-32.5 -59.5t-13 -76.5t-2 -76zM373 1032q0 -35 2 -68.5t12 -62.5t32.5 -46t65.5 -17q41 0 62.5 17t32 46t12.5 62.5t2 68.5t-2 76t-13.5 77t-34 59.5t-61.5 23.5q-41 0 -62.5 -23.5t-32.5 -59.5t-13 -77t-2 -76z" />
<glyph unicode="9" d="M55.5 987q-0.5 76 7.5 139q14 125 73 201t120 98q29 10 66 19q31 8 72.5 14t92.5 6q94 2 171 -11t132.5 -48t89 -98.5t44.5 -161.5q4 -37 7 -100.5t5 -140.5t2 -162t-1 -163.5t-4 -146t-9 -108.5q-14 -104 -53.5 -172t-95.5 -107t-129 -53.5t-154 -14.5h-27 q-170 0 -275.5 96.5t-109.5 256.5q0 18 -1 45.5t-1 54.5v48.5v29.5q41 10 89 10t97 -16q41 -14 73 -41t32 -76q0 -47 -1 -82t8 -59.5t31.5 -36.5t71.5 -12h17q55 0 78.5 38.5t31.5 96.5q6 39 9 118.5t6 176.5q-18 -6 -86 -20.5t-177 -14.5q-127 0 -201.5 60t-88.5 175 q-12 86 -12.5 162zM375 1022q0 -45 2 -82q4 -82 43 -107.5t86 -25.5q37 0 59.5 16.5t34.5 40t16.5 47t4.5 37.5q-2 59 -4.5 106.5t-6.5 73.5q-12 72 -40.5 99.5t-67.5 27.5q-53 0 -85 -41.5t-38 -109.5q-4 -37 -4 -82z" />
<glyph unicode=":" horiz-adv-x="550" d="M102 348q0 72 51.5 122t122.5 50q35 0 67 -13t55.5 -37t37 -54.5t13.5 -67.5t-13.5 -67.5t-37 -54t-55.5 -37t-67 -13.5q-72 0 -123 50t-51 122zM102 1090q0 72 51.5 122t122.5 50q35 0 67 -13.5t55.5 -37t37 -54.5t13.5 -67q0 -37 -13.5 -68t-37 -54.5t-55.5 -36.5 t-67 -13q-72 0 -123 50t-51 122z" />
<glyph unicode=";" horiz-adv-x="550" d="M102 -141q0 29 9.5 106.5t19.5 161.5q12 98 29 211h151q121 0 121 -92q0 -35 -8 -61.5t-14 -51.5l-121 -381h-66q-49 0 -85 24.5t-36 82.5zM102 1090q0 72 51.5 122t122.5 50q35 0 67 -13.5t55.5 -37t37 -54.5t13.5 -67q0 -37 -13.5 -68t-37 -54.5t-55.5 -36.5t-67 -13 q-72 0 -123 50t-51 122z" />
<glyph unicode="&#x3c;" horiz-adv-x="1210" d="M10 616v189q0 39 21.5 69.5t54.5 47.5l840 391v-162q0 -68 -21.5 -107.5t-73.5 -64.5l-557 -225l557 -219q51 -25 73 -65t22 -108v-169z" />
<glyph unicode="=" horiz-adv-x="999" d="M72 383v70q0 31 10 60.5t29.5 53t49 39t68.5 15.5h699v-70q0 -31 -10.5 -60.5t-31 -53t-49 -39t-67.5 -15.5h-698zM72 879v69q0 31 10 60.5t29.5 53t49 39t68.5 15.5h699v-69q0 -31 -10.5 -61t-31 -53.5t-49 -38.5t-67.5 -15h-698z" />
<glyph unicode="&#x3e;" horiz-adv-x="1208" d="M10 193v161q0 68 21.5 108t72.5 64l558 226l-558 219q-51 25 -72.5 64.5t-21.5 107.5v170l916 -424v-189q0 -39 -21.5 -69.5t-54.5 -46.5z" />
<glyph unicode="?" horiz-adv-x="837" d="M31 979v29.5v48t1 54.5t1 46q4 162 110.5 233.5t276.5 71.5q92 0 168 -23.5t131 -67.5t85 -106.5t30 -138.5q0 -82 -21.5 -143t-54.5 -109.5t-71 -87t-70.5 -75.5t-54 -76t-21.5 -86v-125q-20 -4 -47 -6q-23 -2 -55.5 -3t-73.5 -1q-47 0 -74 10t-40 28.5t-17.5 45 t-4.5 61.5v16q0 61 22.5 105.5t55.5 81.5t71 70.5t71.5 73.5t57 91.5t28.5 122.5q-4 76 -33 105.5t-72 29.5q-53 0 -80.5 -30.5t-27.5 -122.5q0 -49 -31 -76t-72 -41q-51 -16 -99 -16t-89 10zM225 154q0 72 51.5 122t122.5 50q35 0 67 -13.5t55.5 -37t36.5 -54.5t13 -67 q0 -37 -13 -68t-36.5 -54.5t-55.5 -36.5t-67 -13q-72 0 -123 50t-51 122z" />
<glyph unicode="@" horiz-adv-x="1638" d="M47 745q0 166 63.5 307.5t173 246t257 163t313.5 58.5q150 0 284 -44t235.5 -126t159.5 -200t58 -265q0 -117 -28.5 -204t-74.5 -151.5t-103.5 -106.5t-115 -66.5t-107.5 -35t-81 -10.5q-72 0 -103.5 24.5t-39.5 63.5h-4q-39 -41 -97.5 -64.5t-131.5 -23.5 q-59 0 -113.5 23.5t-96.5 71t-68 120t-26 168.5q0 86 34 168t90.5 144.5t131 101.5t154.5 39q92 0 148.5 -30t107.5 -95q4 23 7 43t5 37q2 18 4 31q29 -2 54 -7q23 -4 45 -6t35 -4q29 -4 44 -27.5t5 -60.5l-2 -8l-7 -37l-69 -340q-4 -18 -7 -43t-3 -49q0 -39 41 -39 q31 0 64.5 17.5t60 55.5t44 98t17.5 144q0 125 -41 220.5t-114.5 159t-176 95t-225.5 31.5q-117 0 -220.5 -45t-180 -125t-121.5 -187.5t-45 -230.5q0 -139 45 -247.5t123.5 -183t186 -113.5t230.5 -39q57 0 103.5 4t87.5 12q53 12 107.5 37t95.5 47q49 27 92 60 q12 -20 22 -39q10 -16 19.5 -31.5t15.5 -26.5q14 -23 4 -44t-39 -38q-23 -14 -53 -32q-27 -16 -63.5 -35t-81.5 -35q-66 -29 -145 -47.5t-165 -18.5q-168 0 -317.5 57.5t-261 159t-176 242.5t-64.5 311zM635 700q0 -74 31.5 -123t109.5 -49q55 0 97 17.5t71 48.5t43 71 t14 85q0 72 -39.5 117.5t-119.5 45.5q-45 0 -83 -17t-65.5 -47t-43 -69t-15.5 -80z" />
<glyph unicode="A" horiz-adv-x="1153" d="M10 0q2 14 17.5 90t40 189.5t53.5 253t59 284.5q70 338 158 760h285q98 0 151 -41t82 -150q6 -23 21.5 -93t37 -171.5t47 -223.5t50.5 -247q59 -293 131 -651h-211q-66 0 -109 37t-53 90l-74 362h-264l-80 -362q-10 -53 -53 -90t-109 -37h-180zM481 731h174l-82 504z" />
<glyph unicode="B" horiz-adv-x="1073" d="M70 0v1577h592q86 0 145 -20.5t97 -55.5t56.5 -84t24.5 -104t6 -107.5t-8 -105.5q-10 -78 -42 -134.5t-110 -91.5q53 -14 89 -43.5t56.5 -67.5t30 -79t11.5 -78q3 -47 2 -100v-54q-2 -84 -14 -159q-25 -139 -125.5 -216t-274.5 -77h-536zM414 236h94q66 0 101.5 28.5 t45.5 104.5q5 41 9 107q1 18 1 36q0 47 -6 94q-4 47 -33.5 84t-103.5 37h-108v-491zM414 965h90q68 0 102.5 28.5t42.5 106.5q3 22 3 47v13q-1 32 -5 67q-2 18 -8 37.5t-20.5 35t-38 25.5t-60.5 10h-106v-370z" />
<glyph unicode="C" horiz-adv-x="1028" d="M59 807q0 166 8.5 310.5t52.5 251t139 167.5t271 61q195 0 309.5 -72.5t118.5 -246.5q0 -20 1.5 -65.5t1.5 -92.5v-86v-47q-47 -10 -113 -10q-96 0 -155.5 34t-59.5 132q0 55 -2 96t-11.5 68.5t-31 42t-58.5 14.5q-57 0 -76.5 -44t-27.5 -103t-13 -172t-5 -265 q0 -61 1 -128.5t2 -128t4 -107.5t7 -70q12 -78 35.5 -108.5t70.5 -30.5q31 0 51.5 13t33 48t17.5 93.5t5 150.5q0 98 59.5 132t155.5 34q66 0 113 -10v-60.5v-111t-1 -116.5t-1 -77q-4 -174 -118 -252t-300 -78q-174 0 -271.5 39t-144.5 134.5t-57.5 256t-10.5 404.5z" />
<glyph unicode="D" horiz-adv-x="1054" d="M70 0v1577h448q121 0 205 -25.5t138 -71.5t81 -113t35 -146q8 -84 13 -187.5t5 -238.5q0 -55 -1 -118t-3 -122t-5 -111.5t-9 -87.5q-25 -174 -124 -264t-314 -92h-469zM414 236h108q55 0 85 32.5t38 116.5q2 20 4 65.5t3 101.5t1 119.5v123.5q0 135 -3 236.5t-9 158.5 q-2 20 -8 46t-20.5 48.5t-39 37.5t-61.5 15h-98v-1101z" />
<glyph unicode="E" horiz-adv-x="851" d="M70 0v1577h759v-55q0 -33 -11 -66t-32.5 -59.5t-53.5 -43t-75 -16.5q-25 0 -64.5 -1t-80.5 -1h-98v-368h338v-56q0 -33 -11.5 -65.5t-34 -59t-54 -43t-74.5 -16.5h-164v-487h420v-47q0 -86 -50.5 -139.5t-140.5 -53.5h-573z" />
<glyph unicode="F" horiz-adv-x="845" d="M70 125v93v179.5v234.5v259v255t1 220t1 154v57h755v-57q0 -33 -11 -66t-32.5 -58.5t-53.5 -42t-75 -16.5q-25 0 -65.5 -1t-79.5 -1h-96v-366h338q-2 -8 -2 -17v-41q0 -33 -11.5 -65.5t-33 -58t-53 -42t-74.5 -16.5h-76t-92 -2v-727h-228q-49 0 -80.5 33t-31.5 92z" />
<glyph unicode="G" horiz-adv-x="1034" d="M60 763v61q0 61 1 119q2 87 5.5 161t9.5 119q25 193 143.5 283.5t315.5 90.5h14q92 0 169 -15t132 -50t86 -94.5t33 -145.5q0 -20 1 -50t1 -58.5v-52v-31.5q-39 -9 -87 -9h-10q-53 1 -106 17q-47 14 -80 43t-33 82q0 47 -4 72.5t-16 38t-32.5 15.5t-51.5 3h-16 q-55 -4 -80 -45t-33 -100q-6 -37 -9 -106t-5 -156t-4 -181v-91.5v-87.5q2 -85 6 -153.5t8 -101.5q12 -78 43 -107.5t71 -29.5q4 -2 13 -2h8q53 0 76.5 15t30.5 56q4 27 4 67q0 22 -2 48q-3 74 -3 191v96q0 20 -8 30.5t-17 15.5t-18.5 6t-11.5 1q-31 0 -53.5 15.5t-37.5 41 t-23.5 57t-8.5 64.5q0 10 -1 19.5t-1 17.5v16h492v-235v-134.5v-128t-1 -102.5t-1 -55q-2 -86 -33 -148.5t-86 -102.5t-132 -59.5t-169 -19.5h-43q-92 2 -167 18.5t-130 55.5t-89 105.5t-44 169.5q-4 39 -7 108.5t-5.5 154.5t-3.5 178z" />
<glyph unicode="H" horiz-adv-x="1120" d="M70 125v1452h231q49 0 81 -36t32 -95v-479h293v610h231q49 0 81 -36t32 -95v-1446h-232q-49 0 -80.5 33t-31.5 92v602h-293v-727h-232q-49 0 -80.5 33t-31.5 92z" />
<glyph unicode="I" horiz-adv-x="483" d="M70 127v1450h231q49 0 81 -33t32 -92v-1452h-232q-49 0 -80.5 33t-31.5 94z" />
<glyph unicode="J" horiz-adv-x="933" d="M20 446.5v52v31.5q18 2 41 5q18 2 42 3t51 1q55 0 91 -17.5t57.5 -46.5t30.5 -63.5t9 -67.5q0 -88 24.5 -111.5t71.5 -23.5q45 0 66.5 24.5t21.5 81.5v1262h232q49 0 80.5 -33t31.5 -92v-1120q0 -129 -39.5 -201t-105.5 -106.5t-149.5 -43t-172.5 -8.5q-176 0 -276 94.5 t-104 270.5q0 20 -1.5 50t-1.5 58.5z" />
<glyph unicode="K" horiz-adv-x="1040" d="M70 127v1450h231q49 0 81 -33t32 -94v-629q6 16 23.5 65.5t41 116t50 141.5t49 140.5t39 114.5t20.5 63q12 47 50 81t91 34h228q-63 -160 -117 -303q-23 -61 -47.5 -122.5t-46 -118t-40 -103.5t-30.5 -76q12 -33 31.5 -87t44 -120.5t52.5 -140.5t54 -146 q63 -170 133 -360h-252q-53 0 -91 36t-50 89q-4 16 -21.5 68.5l-41 123t-51 150.5t-52 150.5t-43 123t-24.5 70.5v-811h-232q-49 0 -80.5 33t-31.5 94z" />
<glyph unicode="L" horiz-adv-x="835" d="M70 0v1577h231q49 0 81 -33t32 -92v-1214h422v-45q0 -86 -50.5 -139.5t-140.5 -53.5h-575z" />
<glyph unicode="M" horiz-adv-x="1460" d="M70 125v1452h260q98 0 151.5 -40t81.5 -148q6 -23 16.5 -64t24.5 -94t29.5 -113.5t32.5 -122.5q37 -143 77 -309q45 174 82 320q16 61 31.5 123.5t29 115.5t24 93t14.5 57q23 86 70.5 134t152.5 48h244v-1577h-232q-45 0 -74.5 31.5t-29.5 91.5v430q0 170 2 377 l-230 -930h-96q-78 0 -121 45t-69 135q-6 20 -21.5 81t-37 141.5t-44 170t-43 166t-34 129t-15.5 60.5v-928h-164q-49 0 -80.5 33t-31.5 92z" />
<glyph unicode="N" horiz-adv-x="1218" d="M70 127v1446h399q66 0 109 -37t55 -90q4 -18 19.5 -92t37 -179.5t46 -230.5t47 -243.5t41 -220t26.5 -158.5v1251h186q49 0 81 -33t32 -92v-1448h-401q-66 0 -109 37t-55 90q-4 18 -19.5 92t-37 179.5t-46 230.5t-47 243.5t-41 220t-26.5 158.5v-1249h-185 q-49 0 -80.5 33t-31.5 92z" />
<glyph unicode="O" horiz-adv-x="1067" d="M60 765v61q0 61 1 119q2 87 5.5 161t9.5 119q14 113 57 185.5t105.5 114.5t141.5 57t167 15q121 0 202.5 -25.5t133 -71.5t76 -112.5t32.5 -146.5q8 -76 12.5 -198.5t4.5 -256t-5.5 -258.5t-17.5 -202q-25 -174 -127 -261.5t-309 -91.5q-106 0 -189.5 15.5t-142.5 55.5 t-94 107.5t-47 172.5q-4 39 -7 108.5t-5.5 154.5t-3.5 178zM405 596q2 -86 4.5 -153.5t6.5 -100.5q12 -78 44 -107.5t72 -29.5q53 0 83 31.5t38 115.5q2 29 5.5 95.5t4.5 150.5t2 178q0 47 0.5 92t-0.5 88q-1 86 -3.5 156t-6.5 105q-2 20 -6 45.5t-15 48t-33.5 38 t-59.5 15.5q-59 -2 -85 -44t-36 -103q-4 -37 -8 -106t-5 -155t-2 -180q-1 -47 -1 -92t1 -88z" />
<glyph unicode="P" horiz-adv-x="1046" d="M70 125v1452h618q139 0 221 -66.5t99 -191.5q12 -92 12 -177t-8 -157q-8 -68 -28.5 -121t-49.5 -92t-63.5 -64.5t-67.5 -37.5q-25 -14 -78 -23q-45 -10 -121 -16t-192 -6v-625h-230q-49 0 -80.5 33t-31.5 92zM414 840h116q57 0 92.5 48t41.5 122q4 43 5 92v19q0 38 -3 71 q-2 45 -14.5 73.5t-32 45t-43 22.5t-50.5 6h-112v-499z" />
<glyph unicode="Q" horiz-adv-x="1060" d="M59 426v717q0 133 39 221t104.5 140t150.5 72.5t177 20.5t178.5 -20.5t151 -72.5t103 -140t38.5 -221v-717q0 -160 -54 -254t-146 -139v-41h67q49 0 80 -32t31 -91v-141l-2 2l2 -6q-100 0 -172 7t-118 33.5t-69.5 76.5t-27.5 134q-16 -2 -30.5 -2h-31.5q-92 0 -177 20.5 t-150.5 73t-104.5 139.5t-39 220zM432 344q0 -47 19.5 -85t78.5 -38t79 38t20 85v883q0 47 -19.5 84t-79.5 37q-59 0 -78.5 -37t-19.5 -84v-883z" />
<glyph unicode="R" horiz-adv-x="1101" d="M70 125v1452h616q139 0 221 -67.5t99 -190.5q12 -94 12 -178t-8 -156q-16 -135 -66.5 -202.5t-130.5 -100.5q0 -4 12.5 -35t33 -79t45 -108.5t50.5 -123.5q61 -147 138 -336h-246q-66 0 -108 37t-60 90q-4 12 -18.5 49t-34 89t-42 113.5t-46.5 125.5q-55 145 -123 325 v-829h-232q-49 0 -80.5 33t-31.5 92zM414 840h114q57 0 92.5 48t41.5 122q4 43 5 91v19q0 37 -3 70q-2 45 -14.5 73.5t-32 45t-43 22.5t-50.5 6h-110v-497z" />
<glyph unicode="S" horiz-adv-x="991" d="M55 352v195q47 10 113 10q39 0 78 -5t69.5 -22.5t49 -50.5t18.5 -88q0 -86 23.5 -135t93.5 -49q63 0 92 39t29 151q0 86 -25 128t-78 77q-25 14 -68.5 44t-93 64.5t-96.5 69.5t-78 60q-68 57 -94.5 142t-26.5 177q0 217 110 327.5t337 110.5q92 0 169 -19t132 -59 t87 -102.5t34 -150.5v-193q-23 -4 -54.5 -7t-66.5 -3q-39 0 -76 7t-66.5 25.5t-47 50.5t-17.5 81q0 88 -23.5 116.5t-78.5 28.5q-68 0 -90.5 -48t-22.5 -116q0 -78 24.5 -119.5t67.5 -70.5q23 -16 68 -46t94 -64t91 -63.5t59 -41.5q33 -29 62.5 -59.5t51 -70.5t33.5 -92.5 t12 -123.5q0 -129 -20.5 -221.5t-73.5 -150.5t-144 -85t-233 -27q-119 0 -199.5 28t-131 77t-72 118.5t-21.5 155.5z" />
<glyph unicode="T" horiz-adv-x="1064" d="M20 1485v88h1024v-88q0 -76 -41.5 -130.5t-117.5 -54.5h-180v-1300h-230q-49 0 -81 33t-32 94l-2 1173h-180q-76 0 -118 54.5t-42 130.5z" />
<glyph unicode="U" horiz-adv-x="1011" d="M63 326v1251h232q49 0 81 -36t32 -95v-1086q0 -80 27.5 -109.5t68.5 -29.5q51 0 75.5 32t24.5 116v1208h232q49 0 80.5 -36t31.5 -95v-1094q0 -201 -111.5 -290t-316.5 -89q-102 0 -186 14.5t-144.5 53.5t-93.5 107.5t-33 177.5z" />
<glyph unicode="V" horiz-adv-x="1077" d="M20 1577h240q68 0 111 -37t51 -90l153 -1174l140 1301h219q47 0 85 -21.5t38 -78.5q0 -18 -11.5 -92t-29 -180.5t-40 -236.5t-46 -263.5t-46 -259.5l-40 -224t-27.5 -158.5t-8 -62.5h-299q-98 0 -155.5 41t-78.5 149z" />
<glyph unicode="W" horiz-adv-x="1673" d="M20 1577h213q68 0 112 -36t50 -91q2 -14 6.5 -69.5t11.5 -137.5t15 -181t16 -202q20 -240 43 -536l144 1253h301q66 0 112 -36t52 -91l125 -1151l94 1274h207q51 0 85.5 -26.5t34.5 -98.5q0 -16 -7 -86t-18 -174.5t-26.5 -232.5t-31 -259t-31 -256t-27.5 -222t-19 -156.5 t-7 -61.5h-336q-66 0 -107 37t-57 90q-8 29 -21.5 117t-28 204.5t-28.5 245.5t-25.5 238.5t-19.5 186.5t-8 89q-2 -12 -9.5 -91t-18.5 -191.5t-23.5 -243.5t-25.5 -247t-22.5 -200.5t-15.5 -107.5q-14 -53 -55 -90t-107 -37h-350q-16 117 -33.5 247t-34 262t-33 263 t-30.5 250q-35 279 -66 555z" />
<glyph unicode="X" horiz-adv-x="1050" d="M20 0l236 788l-236 789h228q72 0 112.5 -30.5t61.5 -110.5q10 -39 29.5 -125t42.5 -176q25 -104 55 -226q31 133 57 244q10 47 21.5 93t20.5 85t16.5 67.5t9.5 39.5q12 55 48 97t118 42h190l-219 -784l219 -793h-227q-72 0 -113 30.5t-61 108.5q-4 18 -12.5 52t-18.5 75 t-21.5 87t-21.5 91q-25 104 -53 226q-33 -133 -58 -244q-12 -47 -23 -94t-20.5 -86t-15.5 -67.5t-8 -39.5q-12 -55 -48 -97t-118 -42h-191z" />
<glyph unicode="Y" horiz-adv-x="1005" d="M0 1577h227q72 0 113 -30.5t59 -108.5q10 -41 31 -127t43 -178q25 -106 53 -228q31 133 58 246q10 47 21 94t20.5 87t16.5 69t9 39q12 53 48 95t118 42h189l-336 -981v-596h-232q-49 0 -80.5 33t-31.5 92v479z" />
<glyph unicode="Z" horiz-adv-x="925" d="M41 0l403 1337h-202q-43 0 -75 16.5t-53.5 42t-32.5 58.5t-11 66v57h813l-408 -1337h410v-58q0 -33 -11.5 -65.5t-34 -58t-54 -42t-74.5 -16.5h-670z" />
<glyph unicode="[" horiz-adv-x="581" d="M70 -86v1610q0 59 31.5 92t80.5 33h187q43 0 74.5 -16.5t54 -43t34 -58.5t11.5 -65v-10h-219v-1474h219v-11q0 -33 -11.5 -65.5t-34 -58t-54 -42t-74.5 -16.5h-187q-49 0 -80.5 33t-31.5 92z" />
<glyph unicode="\" horiz-adv-x="768" d="M68 1577h120q68 0 109 -37t53 -90l350 -1450h-120q-68 0 -109 37t-53 90z" />
<glyph unicode="]" horiz-adv-x="579" d="M39 -20h219v1474h-219v10q0 33 11 65t33.5 58.5t54.5 43t75 16.5h186q49 0 81 -33t32 -92v-1610q0 -59 -31.5 -92t-81.5 -33h-186q-43 0 -75 16.5t-54.5 42t-33.5 58.5t-11 65v11z" />
<glyph unicode="_" horiz-adv-x="790" d="M41 -168q0 31 10 60.5t29.5 53t49.5 39t69 15.5h551v-70q0 -31 -10.5 -60.5t-31 -53t-49 -39t-67.5 -15.5h-551v70z" />
<glyph unicode="`" horiz-adv-x="423" d="M-39 1737q31 37 74 70.5t98 33.5q59 0 113 -53l213 -209q-6 -6 -16.5 -17.5t-25 -22.5t-33.5 -20.5t-40 -11.5q-23 0 -44 8.5t-42 22.5z" />
<glyph unicode="a" horiz-adv-x="1042" d="M10 0q2 12 16.5 81t35 172t47 231t53.5 259q63 307 143 691h258q90 0 137.5 -37t73.5 -135q4 -18 18.5 -83t33 -157t42 -204.5t45.5 -225.5q53 -266 119 -592h-190q-59 0 -97 34t-49 81l-67 327h-238l-72 -327q-10 -47 -49 -81t-98 -34h-162zM436 670h156l-74 452z" />
<glyph unicode="b" horiz-adv-x="985" d="M70 1434h538q80 0 133.5 -17.5t87 -49.5t50 -75t22.5 -94q4 -51 5 -100v-11q0 -44 -7 -88q-10 -72 -38.5 -122.5t-98.5 -81.5q49 -12 80.5 -39t51 -62t28 -72.5t10.5 -70.5q1 -42 1 -90v-50q-1 -77 -13 -143q-23 -127 -113 -197.5t-250 -70.5h-485zM383 215h84 q61 0 93 25.5t42 95.5q6 40 8 98v29q0 44 -4 88q-4 43 -30.5 75.5t-94.5 32.5h-98v-444zM383 877h82q61 0 93 26.5t38 95.5q3 24 3 54t-3 65q-4 35 -26.5 67t-90.5 32h-96v-340z" />
<glyph unicode="c" horiz-adv-x="950" d="M59 735q0 152 7.5 284t48.5 229.5t128 153.5t246 56q88 0 160 -15.5t123 -50t79 -90t30 -135.5q0 -18 1 -60t1 -85v-79v-44q-20 -4 -47 -6t-56 -2q-88 0 -142 30.5t-54 120.5q0 49 -2 87t-11.5 64t-28 38t-53.5 12q-53 0 -70.5 -40t-23.5 -93q-8 -53 -13 -156.5 t-5 -242.5q0 -57 1 -119t2 -117t4 -98t7 -64q10 -72 31.5 -99.5t64.5 -27.5q29 0 47.5 12.5t29.5 44t16.5 85t5.5 137.5q0 90 54 120.5t142 30.5q29 0 55.5 -2t47.5 -6v-54v-101.5t-1 -107.5t-1 -71q-4 -160 -108.5 -230.5t-272.5 -70.5q-160 0 -249 36t-132 123 t-52.5 233.5t-9.5 369.5z" />
<glyph unicode="d" horiz-adv-x="970" d="M70 0v1438h407q111 0 187.5 -23.5t126 -65.5t74 -101.5t30.5 -133.5q6 -78 11 -172t5 -217q0 -51 -1 -107.5t-3 -110.5t-5 -101.5t-7 -79.5q-23 -158 -114 -241t-287 -85h-424zM383 215h98q49 0 76 29.5t35 107.5q2 18 3 58.5t2 92.5t1 110.5v111.5q0 123 -2 215t-8 145 q-2 18 -8.5 42t-18.5 44.5t-34.5 35t-55.5 14.5h-88v-1006z" />
<glyph unicode="e" horiz-adv-x="782" d="M70 0v1434h690v-52q0 -29 -10.5 -58.5t-31 -53t-49 -38.5t-67.5 -15h-219v-340h307v-50q0 -31 -10 -60.5t-30.5 -53t-49.5 -39t-68 -15.5h-149v-438h381v-53q0 -31 -10.5 -60.5t-31 -53t-49 -39t-67.5 -15.5h-536z" />
<glyph unicode="f" horiz-adv-x="778" d="M70 113v131v253.5v311.5v303t1 230l1 90h688v-52q0 -29 -10.5 -58.5t-31 -53t-49 -39t-67.5 -15.5h-219v-337h307v-50q0 -31 -10 -60.5t-30.5 -53t-49.5 -39t-68 -15.5h-153v-661h-207q-45 0 -73.5 29.5t-28.5 85.5z" />
<glyph unicode="g" horiz-adv-x="960" d="M59 750q0 111 3.5 209t11.5 155q25 178 130 261t285 83h13q86 0 156.5 -14t123 -46t82 -86.5t31.5 -133.5q0 -18 1 -45t1 -52.5v-46v-28.5q-41 -10 -89 -10l-3 -1q-46 0 -94 17q-41 14 -73 39.5t-32 76.5q0 43 -4 68t-16.5 36t-31.5 13t-50 2h-8q-51 -4 -74 -42t-31 -93 q-4 -33 -8 -96.5t-5 -142t-2 -163.5v-83v-80q1 -78 4 -140.5t7 -93.5q12 -72 41 -99.5t66 -27.5h20q49 0 69.5 13.5t26.5 52.5q4 26 4 64q0 19 -1 42q-3 66 -3 174v89q0 18 -7 28t-16 14.5t-17.5 5.5t-10.5 1q-27 0 -48.5 14t-35.5 37.5t-21.5 52.5t-7.5 60v49h451v-602 q-4 -160 -111.5 -234t-277.5 -74h-37q-86 2 -154.5 17.5t-120 52.5t-82 98.5t-40.5 155.5q-4 31 -6 79t-4.5 108.5t-3.5 129t-1 136.5z" />
<glyph unicode="h" horiz-adv-x="1030" d="M70 115v1319h211q45 0 73.5 -31t28.5 -86v-440h264v557h211q45 0 74 -31t29 -86v-1317h-211q-45 0 -74 29.5t-29 85.5v544h-264v-659h-211q-45 0 -73.5 29.5t-28.5 85.5z" />
<glyph unicode="i" horiz-adv-x="452" d="M70 115v1319h211q45 0 73.5 -30t28.5 -85v-1319h-211q-45 0 -73.5 29.5t-28.5 85.5z" />
<glyph unicode="j" horiz-adv-x="837" d="M20 405.5v48v29.5q16 2 37 4q16 2 37 3.5t43 1.5q49 0 81 -16.5t50.5 -42t25.5 -57.5t7 -63q0 -80 21.5 -101.5t62.5 -21.5q76 0 76 97v1147h211q45 0 73.5 -30t28.5 -85v-997q0 -113 -34.5 -181.5t-92 -105.5t-131.5 -49.5t-149 -12.5q-154 0 -247 86t-97 248 q0 18 -1.5 45t-1.5 53.5z" />
<glyph unicode="k" horiz-adv-x="956" d="M70 117v1317h209q47 0 75.5 -30t28.5 -85v-569q6 14 22.5 59t38 105.5t45 127t45 127t36 103.5t18.5 57q10 43 45 74t82 31h209q-55 -147 -107 -275q-23 -55 -44 -111.5t-41.5 -106.5t-38 -92t-27.5 -69q10 -31 28.5 -81t41 -110.5t48 -128t50.5 -132.5q57 -154 122 -328 h-231q-47 0 -82 35t-45 82q-4 14 -20.5 62t-38 111.5t-47 136.5t-48 137.5t-39 112.5t-22.5 64v-741h-211q-45 0 -73.5 29.5t-28.5 87.5z" />
<glyph unicode="l" horiz-adv-x="763" d="M70 0v1434h211q45 0 73.5 -30t28.5 -85v-1104h381v-47q0 -31 -10.5 -60.5t-31 -53t-49 -39t-67.5 -15.5h-536z" />
<glyph unicode="m" horiz-adv-x="1341" d="M70 115v1323h237q90 0 137.5 -37t75.5 -135q4 -18 13.5 -56.5t21.5 -87.5t26.5 -105t28.5 -112q33 -129 72 -282q39 160 74 292q14 57 28.5 113.5t26.5 106t21.5 85t13.5 52.5q20 76 64 121t141 45h221v-1438h-211q-41 0 -67.5 27.5t-26.5 85.5v391q0 154 2 342 l-209 -846q-8 -2 -21 -2h-67q-72 0 -111 42t-61 124q-6 18 -20.5 73.5t-34 128t-41 154.5t-39 150.5t-29.5 117t-14 56.5v-844h-150q-45 0 -73.5 29.5t-28.5 85.5z" />
<glyph unicode="n" horiz-adv-x="1126" d="M70 115v1323h364q59 0 99 -34t51 -81q4 -16 18 -84t33.5 -164t42 -210.5t43 -223.5t37 -201t24.5 -145v1143h172q45 0 74 -30t29 -83v-1325h-367q-59 0 -99 35t-50 82q-4 16 -18.5 83.5t-34 164t-42 211t-43 223t-37 201t-24.5 145.5v-1145h-170q-45 0 -73.5 29.5 t-28.5 85.5z" />
<glyph unicode="o" d="M61 696q0 125 3.5 240t11.5 178q14 104 53 172t97.5 106t131 52t152.5 14q113 0 187.5 -23.5t122.5 -66.5t70.5 -104.5t31.5 -135.5q6 -70 10 -181t4 -232t-5 -233.5t-16 -186.5q-23 -160 -118 -240t-285 -82h-12q-92 0 -166 13.5t-128 49.5t-87 98.5t-43 160.5 q-6 55 -10.5 165.5t-4.5 235.5zM378 543q1 -78 4 -139.5t7 -92.5q12 -72 41 -99.5t68 -27.5q47 0 74.5 29.5t35.5 105.5q2 27 5 87.5t4 137.5t3 162q1 42 0.5 83t-0.5 81q-2 78 -4 140.5t-6 95.5q-2 18 -6 43t-14 45t-30.5 34.5t-55.5 14.5q-55 -2 -79 -40t-32 -95 q-4 -33 -8 -96.5t-5 -142t-2 -163.5v-83v-80z" />
<glyph unicode="p" horiz-adv-x="962" d="M70 115v1319h563q127 0 200.5 -60.5t90.5 -173.5q10 -86 10 -162.5t-6 -142.5q-8 -61 -27.5 -109.5t-45.5 -84t-56.5 -58t-61.5 -33.5q-25 -14 -71 -22q-41 -8 -110 -14.5t-175 -6.5v-567h-209q-45 0 -73.5 29.5t-28.5 85.5zM383 762h106q53 0 84 45t37 113q4 37 5 82v18 q0 34 -3 63q-4 82 -42 108t-85 26h-102v-455z" />
<glyph unicode="q" horiz-adv-x="989" d="M59 393v647q0 123 36 204t96.5 128t138.5 66.5t164 19.5t164.5 -19.5t139 -66.5t96.5 -128t36 -204v-651q0 -150 -51.5 -234.5t-135.5 -125.5v-37h64q45 0 73.5 -30t28.5 -85v-129l-4 2l4 -6q-94 0 -159.5 7t-108.5 30.5t-64.5 70t-25.5 123.5q-14 -2 -27.5 -2h-29.5 q-86 0 -164 19.5t-138.5 68t-96.5 129t-36 203.5zM403 315q0 -43 18.5 -77.5t72.5 -34.5q55 0 73.5 34.5t18.5 77.5v801q0 43 -18.5 78t-73.5 35q-53 0 -72 -35t-19 -78v-801z" />
<glyph unicode="r" horiz-adv-x="1011" d="M70 115v1319h561q127 0 200.5 -61.5t90.5 -174.5q10 -86 10 -161.5t-6 -141.5q-16 -123 -61.5 -185.5t-119.5 -91.5q0 -2 12.5 -29.5t31 -71.5t41 -99.5t47.5 -112.5q55 -135 124 -305h-233q-53 0 -92 34t-53 81q-4 12 -16.5 46t-30 81t-39 103t-41.5 114 q-51 133 -113 295v-754h-211q-45 0 -73.5 29.5t-28.5 85.5zM383 762h104q53 0 84 45t37 111q4 38 5 82v18q0 34 -3 63q-4 82 -42 109t-85 27h-100v-455z" />
<glyph unicode="s" horiz-adv-x="923" d="M55 324v180q23 4 51.5 6t59.5 2q37 0 70.5 -5t61.5 -21.5t44 -46t16 -81.5q0 -78 21.5 -123t87.5 -45q57 0 84 37t27 140q0 78 -23 115.5t-72 68.5q-23 14 -62.5 42t-85.5 59.5t-89 63.5t-72 56q-63 53 -88 122t-25 167q0 186 96.5 291.5t317.5 105.5q170 0 276.5 -71.5 t110.5 -233.5q0 -18 1 -45t1 -53.5v-47v-28.5q-41 -10 -82 -10q-29 0 -65.5 5t-68.5 19.5t-53.5 40t-21.5 64.5q0 92 -27.5 122.5t-80.5 30.5q-43 0 -74 -29.5t-31 -105.5q0 -84 24 -119.5t65 -62.5q20 -12 62 -41t86 -59.5t83 -57.5t53 -39q37 -31 64.5 -62.5t47 -70.5 t29 -88t9.5 -117q0 -117 -23.5 -198.5t-75 -132t-135.5 -73t-203 -22.5q-109 0 -183.5 26t-120.5 72t-66.5 110.5t-20.5 142.5z" />
<glyph unicode="t" horiz-adv-x="976" d="M20 1358v80h936v-80q0 -70 -37.5 -120t-107.5 -50h-166v-1188h-211q-43 0 -71.5 29.5t-28.5 87.5l-2 1071h-166q-68 0 -107 50t-39 120z" />
<glyph unicode="u" horiz-adv-x="935" d="M63 295v1143h211q45 0 74 -33t29 -86v-993q0 -72 24.5 -99.5t63.5 -27.5q47 0 70.5 29.5t23.5 105.5v1104h211q45 0 73.5 -33t28.5 -86v-1000q0 -184 -101 -265t-290 -81q-94 0 -171 13.5t-132 48.5t-85 98.5t-30 161.5z" />
<glyph unicode="v" horiz-adv-x="985" d="M20 1434h220q61 0 101 -35t46 -82l139 -1065l127 1182h201q41 0 76 -19.5t35 -73.5q0 -16 -9.5 -81.5t-26 -160.5t-37 -212t-41 -236t-40.5 -232.5t-36.5 -204.5t-26 -148.5t-9.5 -65.5h-272q-90 0 -142.5 37t-70.5 137z" />
<glyph unicode="w" horiz-adv-x="1533" d="M20 1434h195q61 0 101 -33t46 -84q0 -12 6 -62.5t11.5 -125t12.5 -166t16 -183.5q18 -217 41 -485l131 1139h274q59 0 101 -33t49 -84l112 -1045l88 1162h189q47 0 78.5 -25t31.5 -90q0 -14 -6 -77.5t-17.5 -159t-24.5 -212t-27.5 -236.5t-29 -232.5t-24.5 -201.5 t-17 -143.5t-7 -56.5h-308q-59 0 -97 35t-52 82q-8 27 -20.5 106.5t-24.5 186t-25.5 224.5t-25 218t-18.5 171t-7 81q-2 -10 -8 -82t-16.5 -175.5t-22.5 -223t-23.5 -226t-20.5 -183.5t-13 -97q-12 -47 -50 -82t-98 -35h-319q-16 106 -31.5 225t-31 240t-31 238.5 t-27.5 226.5q-31 252 -60 504z" />
<glyph unicode="x" horiz-adv-x="956" d="M20 0l213 715l-213 719h216q63 0 97 -28t50 -99q4 -18 11 -48t16.5 -67t19.5 -79t21 -83q23 -96 49 -207q31 123 53 224q10 43 20.5 86t18.5 78.5t14 61t8 36.5q10 49 43 87t107 38h172l-197 -715l197 -719h-215q-61 0 -96 27.5t-52 99.5q-4 18 -11 48t-16 67t-19.5 78.5 t-20.5 82.5q-23 96 -49 205q-31 -123 -54 -223l-20 -86t-18.5 -78t-14.5 -61.5t-8 -34.5q-10 -49 -43 -87t-106 -38h-173z" />
<glyph unicode="y" horiz-adv-x="915" d="M0 1434h215q63 0 97 -28t50 -99l117 -484l115 486q10 49 43 87t106 38h172l-305 -891v-543h-211q-45 0 -73.5 29.5t-28.5 85.5v434z" />
<glyph unicode="z" horiz-adv-x="849" d="M41 0l369 1219h-187q-39 0 -67.5 14t-48 37.5t-29.5 53.5t-10 60v54h739l-369 -1219h371v-53q0 -29 -10.5 -58.5t-29.5 -53t-48 -39t-68 -15.5h-612z" />
<glyph unicode="{" horiz-adv-x="706" d="M20 623v196h99q16 0 31.5 4t27.5 17.5t19.5 41t7.5 74.5v420q0 143 61.5 208t179.5 65h54q43 0 74.5 -16.5t54 -43t34 -58.5t11.5 -65v-10h-127q-47 0 -69.5 -23.5t-22.5 -86.5v-412q0 -72 -21.5 -113t-52.5 -62.5t-63.5 -27.5t-57.5 -8v-4q25 -2 57.5 -8t63.5 -27.5 t52.5 -62.5t21.5 -113v-416q0 -63 22.5 -86.5t69.5 -23.5h127v-11q0 -33 -11.5 -65.5t-34 -58t-54 -42t-74.5 -16.5h-54q-119 0 -180 64.5t-61 207.5v424q0 47 -7.5 75t-19.5 41t-27.5 17.5t-31.5 4.5h-99z" />
<glyph unicode="}" horiz-adv-x="706" d="M33 -18h127q47 0 69.5 23.5t22.5 86.5v416q0 72 21.5 113t52 62.5t63.5 27.5t57 8v4q-25 2 -57.5 8t-63 27.5t-52 62.5t-21.5 113v412q0 63 -22.5 86.5t-69.5 23.5h-127v10q0 33 11 65t33.5 58.5t54.5 43t75 16.5h53q119 0 180.5 -64.5t61.5 -208.5v-420q0 -47 7 -74.5 t19.5 -41t27.5 -17.5t32 -4h98v-196h-98q-16 0 -31.5 -4.5t-28 -17.5t-19.5 -41t-7 -75v-424q0 -143 -61.5 -207.5t-180.5 -64.5h-53q-43 0 -75 16.5t-54.5 42t-33.5 58.5t-11 65v11z" />
<glyph unicode="~" horiz-adv-x="1165" d="M82 608q0 25 20.5 59.5t55.5 67.5t83 55.5t103 22.5q84 0 155.5 -24.5t133 -53t115 -53.5t102.5 -25q35 0 62.5 17.5t50.5 40.5q25 25 47 59q20 -12 37 -31q14 -16 25 -37.5t11 -48.5q0 -25 -20.5 -60.5t-56 -67t-82.5 -55t-103 -23.5q-84 0 -154.5 24.5t-132 54t-115 54 t-102.5 24.5q-35 0 -63.5 -18.5t-50.5 -40.5q-25 -25 -47 -57q-20 12 -37 30q-14 16 -25.5 37t-11.5 49z" />
<glyph unicode="&#xa8;" horiz-adv-x="774" d="M59 1673q0 57 40 97t98 40q57 0 97 -39.5t40 -97.5q0 -57 -40 -97t-97 -40t-97.5 40t-40.5 97zM440 1673q0 57 40 97t98 40q57 0 97 -39.5t40 -97.5q0 -57 -40 -97t-97 -40t-97.5 40t-40.5 97z" />
<glyph unicode="&#xa9;" horiz-adv-x="989" d="M47 1049q0 92 35 173t96.5 142t143 96t174.5 35q92 0 173 -35t142 -96t96 -142t35 -173t-35 -174t-96 -143.5t-142 -96.5t-173 -35t-174 35t-143.5 96.5t-96.5 143.5t-35 174zM182 1049q0 -72 23.5 -131.5t64.5 -102.5t99.5 -66.5t126.5 -23.5t125 23.5t98 66.5 t64.5 102.5t23.5 131.5t-23.5 131t-64.5 101t-98.5 65.5t-124.5 23.5q-68 0 -126.5 -23.5t-99.5 -65.5t-64.5 -101t-23.5 -131zM340 1038q0 47 1 91.5t3 66.5q10 72 49 97.5t92 29.5h9q2 2 10 2h4q66 0 104.5 -42t38.5 -103q2 -12 2 -36v-30q-16 -4 -32.5 -4t-36.5 6 q-16 4 -27.5 14.5t-11.5 28.5q0 35 -2 59.5t-39 24.5q-20 0 -28.5 -14.5t-10.5 -36.5q-4 -18 -5 -60t-1 -90.5t1 -90.5t3 -58q4 -27 15 -37t24 -12h8q18 0 25.5 12t9.5 29.5t1 38t-1 37.5q0 18 11.5 28.5t27.5 16.5q37 8 69 2v-21.5v-38t-1 -40t-1 -25.5q0 -61 -39 -89 t-104 -28h-14q-66 4 -104 26.5t-46 94.5q-2 20 -3 62t-1 89z" />
<glyph unicode="&#xad;" horiz-adv-x="659" d="M68 606v119q0 31 10 60.5t29.5 53t49 39t68.5 15.5h367v-119q0 -31 -10.5 -60.5t-31 -53t-49 -39t-67.5 -15.5h-366z" />
<glyph unicode="&#xae;" horiz-adv-x="989" d="M47 1047q0 92 35 174t96.5 143t142 96t173.5 35q92 0 174 -35t143 -96t96 -143t35 -174t-35 -173t-96 -142.5t-143 -96.5t-174 -35t-173 35t-142.5 96.5t-96.5 142.5t-35 173zM182 1047q0 -72 23.5 -131.5t64.5 -101.5t98.5 -65.5t125.5 -23.5t126 23.5t99 65.5 t64.5 101.5t23.5 131.5t-23.5 131t-64.5 102t-99.5 66.5t-125.5 23.5q-68 0 -125.5 -23.5t-98.5 -66.5t-64.5 -102t-23.5 -131zM348 846v450h195q90 0 102 -82q6 -61 0 -104q-4 -43 -20.5 -64.5t-40.5 -31.5q0 -2 14 -35t31 -74q20 -47 43 -106h-80q-18 0 -31.5 12t-19.5 29 q-4 8 -16.5 43t-28.5 75q-18 47 -39 103v-262h-72q-16 0 -26.5 9t-10.5 38zM457 1063h37q18 0 28 15.5t15 37.5v58q-2 29 -14.5 38t-28.5 9h-37v-158z" />
<glyph unicode="&#xb0;" horiz-adv-x="681" d="M47 1243q0 61 22.5 114.5t62.5 93.5t93.5 62.5t114.5 22.5t114.5 -22.5t93.5 -62.5t62.5 -93t22.5 -115q0 -61 -22.5 -114.5t-62.5 -93.5t-93.5 -62.5t-114.5 -22.5t-114.5 22.5t-93.5 62.5t-62.5 93.5t-22.5 114.5zM203 1243q0 -57 40 -97t97 -40t97 40t40 97t-40 97 t-97 40t-97 -40t-40 -97z" />
<glyph unicode="&#xb4;" horiz-adv-x="446" d="M35 1583q0 37 16.5 57.5t46.5 42.5l277 199q12 -20 20 -43q8 -20 14.5 -43.5t6.5 -52.5q0 -57 -25.5 -90t-73.5 -54l-254 -110q-8 14 -14 31q-14 33 -14 63z" />
<glyph unicode="&#xb7;" horiz-adv-x="434" d="M41 166q0 18 5 40.5t18.5 42t35 35t52.5 21.5q10 2 22 3t23 1q0 29 10 53.5t26 24.5t20.5 -5t4.5 -9q0 -8 -10 -27.5t-10 -36.5l13 -1t29.5 -5t34 -10t27.5 -19q10 -8 30.5 -40.5t20.5 -77.5q0 -68 -45 -118t-137 -50h-10q-37 0 -70 18q-37 25 -63.5 67t-26.5 93z" />
<glyph unicode="&#xb8;" horiz-adv-x="428" d="M0 -360q0 23 10 47q6 12 13 22q25 -12 47 -20q20 -8 42.5 -13.5t43.5 -5.5q35 0 65.5 17.5t30.5 58.5q0 31 -23.5 50.5t-72.5 19.5q-20 0 -38 -1t-32 -3q-16 -2 -31 -2l72 163h113l-29 -67h29q84 0 136 -36t52 -120q0 -45 -20.5 -81t-55.5 -61.5t-82 -38.5t-100 -13 q-70 0 -120 23.5t-50 60.5z" />
<glyph unicode="&#xc4;" horiz-adv-x="1153" d="M10 0q2 14 17.5 90t40 189.5t53.5 253t59 284.5q70 338 158 760h285q98 0 151 -41t82 -150q6 -23 21.5 -93t37 -171.5t47 -223.5t50.5 -247q59 -293 131 -651h-211q-66 0 -109 37t-53 90l-74 362h-264l-80 -362q-10 -53 -53 -90t-109 -37h-180zM248 1825q0 57 40 97 t97 40t97 -40t40 -97t-40 -97t-97 -40t-97 40t-40 97zM481 731h174l-82 504zM629 1825q0 57 40 97t97 40t97 -40t40 -97t-40 -97t-97 -40t-97 40t-40 97z" />
<glyph unicode="&#xc5;" horiz-adv-x="1153" d="M10 0q2 14 17.5 90t40 189.5t53.5 253t59 284.5q70 338 158 760h285q98 0 151 -41t82 -150q6 -23 21.5 -93t37 -171.5t47 -223.5t50.5 -247q59 -293 131 -651h-211q-66 0 -109 37t-53 90l-74 362h-264l-80 -362q-10 -53 -53 -90t-109 -37h-180zM342 1825 q0 100 68.5 154.5t162.5 54.5q47 0 90.5 -14.5t75 -41t50 -65.5t18.5 -88t-18.5 -88t-50 -64.5t-74.5 -40t-91 -14.5q-47 0 -89 14.5t-73.5 40t-50 64.5t-18.5 88zM481 731h174l-82 504zM498 1825q0 -35 20.5 -54.5t54.5 -19.5q35 0 55.5 19.5t20.5 54.5q0 74 -76 73 q-35 0 -55 -19t-20 -54z" />
<glyph unicode="&#xc6;" horiz-adv-x="1327" d="M8 0l334 1577h963v-55q0 -33 -11.5 -66t-34 -58.5t-54.5 -42t-75 -16.5q-25 0 -52 -1t-50 -1h-55v-379h254v-53q0 -35 -11.5 -67.5t-34 -59t-54 -43t-74.5 -16.5h-80v-479h336v-58q0 -33 -11.5 -65.5t-34 -58t-54 -42t-74.5 -16.5h-394q-49 0 -80.5 33t-31.5 92v364h-197 l-80 -360q-10 -53 -53 -91t-109 -38h-182zM473 729h156v614h-37z" />
<glyph unicode="&#xc7;" horiz-adv-x="1032" d="M59 807q0 166 8.5 310.5t52.5 251t139 167.5t271 61q195 0 309.5 -72.5t118.5 -246.5q0 -20 1.5 -65.5t1.5 -92.5v-86v-47q-47 -10 -113 -10q-96 0 -155.5 33.5t-59.5 132.5q0 55 -2 96t-11.5 68.5t-31 42t-58.5 14.5q-57 0 -76.5 -44t-27.5 -103t-13 -172t-5 -265 q0 -61 1 -128.5t2 -128t4 -107.5t7 -70q12 -78 35.5 -108.5t70.5 -30.5q31 0 51.5 13t33 48t17.5 93.5t5 150.5q0 98 59.5 132t155.5 34q66 0 113 -10v-60.5v-111t-1 -116.5t-1 -77q-4 -164 -107.5 -240.5t-269.5 -87.5l-33 -69h29q84 0 136 -36t52 -120q0 -45 -20.5 -81 t-55.5 -61.5t-82 -38.5t-100 -13q-70 0 -120 23.5t-50 60.5q0 23 10 47q6 12 12 22q25 -12 48 -20q20 -8 42.5 -13.5t43.5 -5.5q35 0 65.5 17.5t30.5 58.5q0 31 -23.5 50.5t-72.5 19.5q-20 0 -38 -1t-32 -3q-16 -2 -31 -2l68 165q-147 8 -229 52.5t-120 140.5t-46.5 251.5 t-8.5 387.5z" />
<glyph unicode="&#xc9;" horiz-adv-x="851" d="M70 0v1577h757v-61q0 -33 -11 -65t-33.5 -57.5t-54.5 -41t-75 -15.5h-239v-372h338v-56q0 -33 -11.5 -65.5t-34 -58t-54 -42t-74.5 -16.5q-27 0 -75 -1t-89 -1v-485h420v-58q0 -33 -11.5 -65.5t-34 -58t-54.5 -42t-75 -16.5h-589zM293 1722q0 37 16.5 57.5t46.5 43.5 l277 198q12 -20 20 -43q8 -20 14.5 -43.5t6.5 -52.5q0 -57 -25.5 -90t-73.5 -53l-253 -111q-8 14 -15 31q-14 33 -14 63z" />
<glyph unicode="&#xd1;" horiz-adv-x="1218" d="M70 127v1446h399q66 0 109 -37t55 -90q4 -18 19.5 -92t37 -179.5t46 -230.5t47 -243.5t41 -220t26.5 -158.5v1251h186q49 0 81 -33t32 -92v-1448h-401q-66 0 -109 37t-55 90q-4 18 -19.5 92t-37 179.5t-46 230.5t-47 243.5t-41 220t-26.5 158.5v-1249h-185 q-49 0 -80.5 33t-31.5 92zM328 1794q0 25 18.5 53.5t46 53t61 41t66.5 16.5q43 0 79 -15.5t66.5 -33t58.5 -32.5t52 -15q23 0 42.5 14t35.5 33q18 20 35 47q20 -12 37 -31q14 -16 25.5 -37.5t11.5 -48.5q0 -25 -18.5 -53.5t-46.5 -53t-61.5 -41t-66.5 -16.5q-43 0 -80 15.5 t-67.5 33t-57 33t-51.5 15.5q-23 0 -42 -15.5t-36 -32.5q-18 -23 -35 -47q-20 12 -36 31q-14 16 -25.5 36.5t-11.5 49.5z" />
<glyph unicode="&#xd6;" horiz-adv-x="1067" d="M60 763q-1 93 1 179t5.5 160t9.5 119q14 113 57 185.5t105.5 114.5t141.5 57t167 15q121 0 202.5 -25.5t133 -71.5t76 -112.5t32.5 -146.5q8 -76 12.5 -199t4.5 -255t-5.5 -256t-17.5 -201q-25 -174 -127 -261.5t-309 -91.5q-102 -2 -185 12.5t-142.5 53.5t-96.5 107.5 t-49 177.5q-4 39 -7 108.5t-5.5 153.5t-3.5 177zM213 1825q0 57 40 97t97 40t97 -40t40 -97t-39.5 -97t-97.5 -40q-57 0 -97 40t-40 97zM404.5 598q1.5 -84 4.5 -151.5t7 -100.5q12 -78 44 -107.5t72 -29.5q53 0 83 31.5t38 115.5q2 29 5.5 94.5t4.5 149.5t2 176t0 177 t-3.5 155t-6.5 104q-2 20 -6 46t-15 48.5t-33.5 38t-59.5 15.5q-59 -2 -85 -44t-36 -104q-4 -37 -8 -105.5t-5 -153.5t-2.5 -178t0 -177zM594 1825q0 57 40 97t97 40t97 -40t40 -97t-40 -97t-97 -40t-97 40t-40 97z" />
<glyph unicode="&#xd8;" horiz-adv-x="1048" d="M53 756q0 90 1 175t4 156.5t10 116.5q14 113 57 185.5t106.5 114.5t142.5 57.5t165 15.5q98 0 166.5 -16.5t121.5 -42.5q18 31 29 51q6 10 10 18q-2 2 2 0t14.5 -6t32.5 -14q55 -23 74 -69t-16 -105l-19 -37q10 -29 16.5 -64.5t10.5 -70.5q6 -76 10 -196t4 -250t-5 -252 t-17 -199q-25 -174 -126.5 -258t-307.5 -89q-102 0 -182.5 12.5t-139.5 51.5q-10 -16 -16 -28.5t-11 -20.5q-6 -10 -10 -17q-55 23 -47 23q-57 23 -75.5 69t16.5 105q2 4 18 35q-14 47 -24 117q-4 39 -7.5 107.5t-5.5 151.5t-2 173zM393 682l252 512v8q-2 20 -6 46 t-16.5 48.5t-34 38t-58.5 15.5q-59 -2 -84.5 -43.5t-33.5 -102.5q-4 -29 -8.5 -86t-6.5 -131t-3 -153.5t-1 -151.5zM401 373l5 -31q14 -78 44.5 -107.5t71.5 -29.5q53 0 82 31.5t39 113.5q2 25 4 82t3 131t2 157t1 157z" />
<glyph unicode="&#xdc;" horiz-adv-x="1011" d="M63 326v1251h232q49 0 81 -36t32 -95v-1086q0 -80 27.5 -109.5t68.5 -29.5q51 0 75.5 32t24.5 116v1208h232q49 0 80.5 -36t31.5 -95v-1094q0 -201 -111.5 -290t-316.5 -89q-102 0 -186 14.5t-144.5 53.5t-93.5 107.5t-33 177.5zM178 1825q0 57 40 97t97 40t97.5 -40 t40.5 -97t-40 -97t-98 -40q-57 0 -97 40t-40 97zM559 1825q0 57 40 97t97 40t97.5 -40t40.5 -97t-40 -97t-98 -40q-57 0 -97 40t-40 97z" />
<glyph unicode="&#xe0;" horiz-adv-x="1042" d="M10 0q2 12 16.5 81t35 172t47 231t53.5 259q63 307 143 691h258q90 0 137.5 -37t73.5 -135q4 -18 18.5 -83t33 -157t42 -204.5t45.5 -225.5q53 -266 119 -592h-190q-59 0 -97 34t-49 81l-67 327h-238l-72 -327q-10 -47 -49 -81t-98 -34h-162zM195 1737q31 37 73.5 70.5 t98.5 33.5q59 0 112 -53l213 -209q-6 -6 -16 -17.5t-24.5 -22.5t-34 -20.5t-39.5 -11.5q-23 0 -44.5 8.5t-41.5 22.5zM436 659h156l-74 453z" />
<glyph unicode="&#xe1;" horiz-adv-x="1042" d="M10 0q2 12 16.5 81t35 172t47 231t53.5 259q63 307 143 691h258q90 0 137.5 -37t73.5 -135q4 -18 18.5 -83t33 -157t42 -204.5t45.5 -225.5q53 -266 119 -592h-190q-59 0 -97 34t-49 81l-67 327h-238l-72 -327q-10 -47 -49 -81t-98 -34h-162zM397 1583q0 37 16.5 57.5 t47.5 42.5l276 199q12 -20 21 -43q8 -20 14 -43.5t6 -52.5q0 -57 -25.5 -90t-72.5 -54l-254 -110q-8 14 -14 31q-14 33 -15 63zM436 659h156l-74 453z" />
<glyph unicode="&#xe2;" horiz-adv-x="1042" d="M10 0q2 12 16.5 81t35 172t47 231t53.5 259q63 307 143 691h258q90 0 137.5 -37t73.5 -135q4 -18 18.5 -83t33 -157t42 -204.5t45.5 -225.5q53 -266 119 -592h-190q-59 0 -97 34t-49 81l-67 327h-238l-72 -327q-10 -47 -49 -81t-98 -34h-162zM186 1505l246 348h115 q45 0 69.5 -16t61.5 -68l192 -264h-104q-43 0 -70.5 4t-48 16.5t-37 34t-37.5 56.5l-59 104l-59 -104q-20 -35 -37 -56.5t-37.5 -34t-48 -16.5t-70.5 -4h-76zM436 659h156l-74 453z" />
<glyph unicode="&#xe3;" horiz-adv-x="1042" d="M10 0q2 12 16.5 81t35 172t47 231t53.5 259q63 307 143 691h258q90 0 137.5 -37t73.5 -135q4 -18 18.5 -83t33 -157t42 -204.5t45.5 -225.5q53 -266 119 -592h-190q-59 0 -97 34t-49 81l-67 327h-238l-72 -327q-10 -47 -49 -81t-98 -34h-162zM213 1667q0 25 18.5 53.5 t46 53t61.5 41t67 16.5q43 0 78.5 -15.5t66.5 -33t58.5 -32.5t52.5 -15q23 0 42 14t35 33q18 20 35 47q20 -12 37 -31q14 -16 25.5 -37.5t11.5 -48.5q0 -25 -18.5 -53.5t-46 -53t-61.5 -41t-67 -16.5q-43 0 -79.5 15.5t-67.5 33t-57.5 33t-51.5 15.5q-23 0 -42 -15.5 t-35 -32.5q-18 -23 -35 -47q-20 12 -37 31q-14 16 -25.5 36.5t-11.5 49.5zM436 659h156l-74 453z" />
<glyph unicode="&#xe4;" horiz-adv-x="1042" d="M10 0q2 12 16.5 81t35 172t47 231t53.5 259q63 307 143 691h258q90 0 137.5 -37t73.5 -135q4 -18 18.5 -83t33 -157t42 -204.5t45.5 -225.5q53 -266 119 -592h-190q-59 0 -97 34t-49 81l-67 327h-238l-72 -327q-10 -47 -49 -81t-98 -34h-162zM190 1673q0 57 40 97t98 40 q57 0 97 -39.5t40 -97.5q0 -57 -40 -97t-97 -40t-97.5 40t-40.5 97zM436 670h156l-74 452zM571 1673q0 57 40 97t98 40q57 0 97 -39.5t40 -97.5q0 -57 -40 -97t-97 -40t-97.5 40t-40.5 97z" />
<glyph unicode="&#xe5;" horiz-adv-x="1042" d="M10 0q2 12 16.5 81t35 172t47 231t53.5 259q63 307 143 691h258q90 0 137.5 -37t73.5 -135q4 -18 18.5 -83t33 -157t42 -204.5t45.5 -225.5q53 -266 119 -592h-190q-59 0 -97 34t-49 81l-67 327h-238l-72 -327q-10 -47 -49 -81t-98 -34h-162zM293 1696q0 100 65.5 157.5 t159.5 57.5q96 0 161.5 -57.5t65.5 -157.5q0 -98 -65.5 -155.5t-161.5 -57.5q-94 0 -159.5 57.5t-65.5 155.5zM436 659h156l-74 465zM436 1696q0 -39 23.5 -60.5t58.5 -21.5t58.5 21.5t23.5 60.5q0 41 -23.5 61.5t-58.5 20.5t-58.5 -20.5t-23.5 -61.5z" />
<glyph unicode="&#xe6;" horiz-adv-x="1214" d="M8 0l305 1434h881q-2 -6 -2 -15v-33q0 -31 -10.5 -60.5t-31 -54t-50 -39.5t-68.5 -15h-143v-343h231v-47q0 -31 -10 -61.5t-30.5 -55t-49.5 -39t-67 -14.5h-74v-440h307v-49q0 -31 -10 -60.5t-30.5 -53t-49.5 -39t-68 -15.5h-360q-45 0 -74 29.5t-29 85.5v331h-180 l-73 -329q-10 -49 -49.5 -83t-98.5 -34h-166zM432 666h143v555h-34z" />
<glyph unicode="&#xe7;" horiz-adv-x="968" d="M59 750q0 156 7.5 285.5t49.5 224t131 146.5t253 52q182 0 288.5 -68.5t110.5 -230.5q0 -18 1 -60t1 -85v-79v-44q-20 -4 -48 -6t-56 -2q-90 0 -145.5 30.5t-55.5 122.5q0 51 -2 89t-11.5 63.5t-28.5 38t-54 12.5q-53 0 -71.5 -41t-27.5 -96q-6 -55 -11 -158.5t-5 -245.5 q0 -59 1 -118.5t2 -111.5t3 -93t6 -62q12 -74 34 -102.5t67 -28.5q29 0 48 9.5t30.5 38t16.5 79.5t5 137q0 92 55.5 124t145.5 32q59 0 104 -10v-51v-95.5t-1 -100.5t-1 -66q-4 -154 -98 -225.5t-248 -80.5l-29 -67h29q84 0 136 -36t52 -120q0 -45 -20.5 -81t-55 -61.5 t-81.5 -38.5t-101 -13q-70 0 -120 23.5t-50 60.5q0 23 11 47q6 12 12 22q25 -12 47 -20q20 -8 43 -13.5t43 -5.5q35 0 65.5 17.5t30.5 58.5q0 31 -23.5 50.5t-72.5 19.5q-20 0 -37.5 -1t-32.5 -3q-16 -2 -30 -2l71 163q-139 6 -215.5 48t-113.5 132.5t-45.5 236t-8.5 360.5z " />
<glyph unicode="&#xe8;" horiz-adv-x="782" d="M70 0v1434h690v-52q0 -29 -10.5 -58.5t-31 -53t-49 -38.5t-67.5 -15h-219v-340h307v-50q0 -31 -10 -60.5t-30.5 -53t-49.5 -39t-68 -15.5h-149v-438h381v-53q0 -31 -10.5 -60.5t-31 -53t-49 -39t-67.5 -15.5h-536zM117 1737q31 37 73.5 70.5t98.5 33.5q59 0 112 -53 l213 -209q-6 -6 -16 -17.5t-24.5 -22.5t-34 -20.5t-39.5 -11.5q-23 0 -44.5 8.5t-41.5 22.5z" />
<glyph unicode="&#xe9;" horiz-adv-x="782" d="M70 0v1434h690v-52q0 -29 -10.5 -58.5t-31 -53t-49 -38.5t-67.5 -15h-219v-340h307v-50q0 -31 -10 -60.5t-30.5 -53t-49.5 -39t-68 -15.5h-149v-438h381v-53q0 -31 -10.5 -60.5t-31 -53t-49 -39t-67.5 -15.5h-536zM256 1583q0 37 16.5 57.5t46.5 42.5l277 199 q12 -20 20 -43q8 -20 14.5 -43.5t6.5 -52.5q0 -57 -25.5 -90t-72.5 -54l-254 -110q-8 14 -15 31q-14 33 -14 63z" />
<glyph unicode="&#xea;" horiz-adv-x="786" d="M70 1505l245 348h115q45 0 69.5 -16t61.5 -68l193 -264h-105q-43 0 -70.5 4t-48 16.5t-37 34t-36.5 56.5l-60 104l-59 -104q-20 -35 -36.5 -56.5t-37 -34t-48.5 -16.5t-71 -4h-75zM74 0v1434h690v-52q0 -29 -10.5 -58.5t-31 -53t-49 -38.5t-67.5 -15h-219v-340h307v-50 q0 -31 -10 -60.5t-30.5 -53t-49.5 -39t-67 -15.5h-150v-438h381v-53q0 -31 -10 -60.5t-30.5 -53t-49.5 -39t-68 -15.5h-536z" />
<glyph unicode="&#xeb;" horiz-adv-x="782" d="M70 0v1434h690v-52q0 -29 -10.5 -58.5t-31 -53t-49 -38.5t-67.5 -15h-219v-340h307v-50q0 -31 -10 -60.5t-30.5 -53t-49.5 -39t-68 -15.5h-149v-438h381v-53q0 -31 -10.5 -60.5t-31 -53t-49 -39t-67.5 -15.5h-536zM82 1673q0 57 40 97t97 40t97 -39.5t40 -97.5 q0 -57 -40 -97t-97 -40t-97 40t-40 97zM463 1673q0 57 40 97t97 40t97 -39.5t40 -97.5q0 -57 -40 -97t-97 -40t-97 40t-40 97z" />
<glyph unicode="&#xec;" horiz-adv-x="452" d="M-78 1737q31 37 74 70.5t98 33.5q59 0 113 -53l213 -209q-6 -6 -16.5 -17.5t-24.5 -22.5t-33.5 -20.5t-40.5 -11.5q-23 0 -44 8.5t-42 22.5zM70 115v1319h211q45 0 73.5 -30t28.5 -85v-1319h-211q-45 0 -73.5 29.5t-28.5 85.5z" />
<glyph unicode="&#xed;" horiz-adv-x="452" d="M70 115v1319h211q45 0 73.5 -30t28.5 -85v-1319h-211q-45 0 -73.5 29.5t-28.5 85.5zM86 1583q0 37 16.5 57.5t47.5 42.5l276 199q12 -20 20 -43q8 -20 14.5 -43.5t6.5 -52.5q0 -57 -25.5 -90t-72.5 -54l-254 -110q-8 14 -15 31q-14 33 -14 63z" />
<glyph unicode="&#xee;" horiz-adv-x="452" d="M-102 1505l245 348h115q45 0 69.5 -16t61.5 -68l193 -264h-105q-43 0 -70.5 4t-48 16.5t-37 34t-36.5 56.5l-60 104l-59 -104q-20 -35 -36.5 -56.5t-37 -34t-48.5 -16.5t-71 -4h-75zM70 115v1319h211q45 0 73.5 -30t28.5 -85v-1319h-211q-45 0 -73.5 29.5t-28.5 85.5z " />
<glyph unicode="&#xef;" horiz-adv-x="452" d="M-80 1673q0 57 40 97t97 40t97.5 -39.5t40.5 -97.5q0 -57 -40 -97t-98 -40q-57 0 -97 40t-40 97zM70 115v1319h211q45 0 73.5 -30t28.5 -85v-1319h-211q-45 0 -73.5 29.5t-28.5 85.5zM260 1673q0 57 40 97t97 40t97.5 -39.5t40.5 -97.5q0 -57 -40 -97t-98 -40 q-57 0 -97 40t-40 97z" />
<glyph unicode="&#xf1;" horiz-adv-x="1126" d="M70 115v1323h364q59 0 99 -34t51 -81q4 -16 18 -84t33.5 -164t42 -210.5t43 -223.5t37 -201t24.5 -145v1143h172q45 0 74 -30t29 -83v-1325h-367q-59 0 -99 35t-50 82q-4 16 -18.5 83.5t-34 164t-42 211t-43 223t-37 201t-24.5 145.5v-1145h-170q-45 0 -73.5 29.5 t-28.5 85.5zM264 1667q0 25 18.5 53.5t46 53t61.5 41t67 16.5q43 0 78.5 -15.5t66.5 -33t58.5 -32.5t52.5 -15q23 0 42 14t36 33q18 20 34 47q20 -12 37 -31q14 -16 25.5 -37.5t11.5 -48.5q0 -25 -18.5 -53.5t-46 -53t-61 -41t-66.5 -16.5q-43 0 -80 15.5t-68 33t-57.5 33 t-50.5 15.5q-23 0 -42.5 -15.5t-35.5 -32.5q-18 -23 -35 -47q-20 12 -37 31q-14 16 -25.5 36.5t-11.5 49.5z" />
<glyph unicode="&#xf2;" d="M61 696q0 125 3.5 240t11.5 178q14 104 53 172t97.5 106t131 52t152.5 14q113 0 187.5 -23.5t122.5 -66.5t70.5 -104.5t31.5 -135.5q6 -70 10 -181t4 -232t-5 -233.5t-16 -186.5q-23 -160 -118 -240t-285 -82q-96 0 -172 12.5t-131 48.5t-89 99.5t-44 161.5 q-6 55 -10.5 165.5t-4.5 235.5zM172 1737q31 37 74 70.5t98 33.5q59 0 113 -53l213 -209q-6 -6 -16.5 -17.5t-25 -22.5t-34 -20.5t-39.5 -11.5q-23 0 -44.5 8.5t-41.5 22.5zM378 543q1 -78 4 -139.5t7 -92.5q12 -72 41 -99.5t68 -27.5q47 0 74.5 29.5t35.5 105.5 q2 27 5 87.5t4 137.5t2.5 162t0 163.5t-3.5 141t-6 95.5q-2 18 -6 43t-14 45t-30.5 34.5t-55.5 14.5q-55 -2 -79 -40t-32 -95q-4 -33 -8 -96.5t-5 -142t-2 -163.5t0 -163z" />
<glyph unicode="&#xf3;" d="M61 696q0 125 3.5 240t11.5 178q14 104 53 172t97.5 106t131 52t152.5 14q113 0 187.5 -23.5t122.5 -66.5t70.5 -104.5t31.5 -135.5q6 -70 10 -181t4 -232t-5 -233.5t-16 -186.5q-23 -160 -118 -240t-285 -82q-96 0 -172 12.5t-131 48.5t-89 99.5t-44 161.5 q-6 55 -10.5 165.5t-4.5 235.5zM378 543q1 -78 4 -139.5t7 -92.5q12 -72 41 -99.5t68 -27.5q47 0 74.5 29.5t35.5 105.5q2 27 5 87.5t4 137.5t2.5 162t0 163.5t-3.5 141t-6 95.5q-2 18 -6 43t-14 45t-30.5 34.5t-55.5 14.5q-55 -2 -79 -40t-32 -95q-4 -33 -8 -96.5t-5 -142 t-2 -163.5t0 -163zM393 1583q0 37 16.5 57.5t47.5 42.5l276 199q12 -20 21 -43q8 -20 14 -43.5t6 -52.5q0 -57 -25.5 -90t-72.5 -54l-254 -110q-8 14 -14 31q-14 33 -15 63z" />
<glyph unicode="&#xf4;" d="M61 696q0 125 3.5 240t11.5 178q14 104 53 172t97.5 106t131 52t152.5 14q113 0 187.5 -23.5t122.5 -66.5t70.5 -104.5t31.5 -135.5q6 -70 10 -181t4 -232t-5 -233.5t-16 -186.5q-23 -160 -118 -240t-285 -82q-96 0 -172 12.5t-131 48.5t-89 99.5t-44 161.5 q-6 55 -10.5 165.5t-4.5 235.5zM178 1505l246 348h115q45 0 69.5 -16t61.5 -68l192 -264h-104q-43 0 -71 4t-48.5 16.5t-36.5 34t-37 56.5l-59 104l-60 -104q-20 -35 -36.5 -56.5t-37 -34t-48 -16.5t-70.5 -4h-76zM378 543q1 -78 4 -139.5t7 -92.5q12 -72 41 -99.5t68 -27.5 q47 0 74.5 29.5t35.5 105.5q2 27 5 87.5t4 137.5t2.5 162t0 163.5t-3.5 141t-6 95.5q-2 18 -6 43t-14 45t-30.5 34.5t-55.5 14.5q-55 -2 -79 -40t-32 -95q-4 -33 -8 -96.5t-5 -142t-2 -163.5t0 -163z" />
<glyph unicode="&#xf5;" d="M61 696q0 125 3.5 240t11.5 178q14 104 53 172t97.5 106t131 52t152.5 14q113 0 187.5 -23.5t122.5 -66.5t70.5 -104.5t31.5 -135.5q6 -70 10 -181t4 -232t-5 -233.5t-16 -186.5q-23 -160 -118 -240t-285 -82q-96 0 -172 12.5t-131 48.5t-89 99.5t-44 161.5 q-6 55 -10.5 165.5t-4.5 235.5zM197 1667q0 25 18 53.5t46 53t61.5 41t66.5 16.5q43 0 79 -15.5t66.5 -33t58.5 -32.5t52 -15q23 0 42.5 14t35.5 33q18 20 35 47q20 -12 37 -31q14 -16 25 -37.5t11 -48.5q0 -25 -18 -53.5t-46 -53t-61.5 -41t-66.5 -16.5q-43 0 -80 15.5 t-67.5 33t-57 33t-51.5 15.5q-23 0 -42 -15.5t-36 -32.5q-18 -23 -35 -47q-20 12 -37 31q-14 16 -25 36.5t-11 49.5zM378 543q1 -78 4 -139.5t7 -92.5q12 -72 41 -99.5t68 -27.5q47 0 74.5 29.5t35.5 105.5q2 27 5 87.5t4 137.5t2.5 162t0 163.5t-3.5 141t-6 95.5 q-2 18 -6 43t-14 45t-30.5 34.5t-55.5 14.5q-55 -2 -79 -40t-32 -95q-4 -33 -8 -96.5t-5 -142t-2 -163.5t0 -163z" />
<glyph unicode="&#xf6;" d="M61 696q0 125 3.5 240t11.5 178q14 104 53 172t97.5 106t131 52t152.5 14q113 0 187.5 -23.5t122.5 -66.5t70.5 -104.5t31.5 -135.5q6 -70 10 -181t4 -232t-5 -233.5t-16 -186.5q-23 -160 -118 -240t-285 -82q-96 0 -172 12.5t-131 48.5t-89 99.5t-44 161.5 q-6 55 -10.5 165.5t-4.5 235.5zM178 1673q0 57 40 97t97 40t97.5 -39.5t40.5 -97.5q0 -57 -40 -97t-98 -40q-57 0 -97 40t-40 97zM378 543q1 -78 4 -139.5t7 -92.5q12 -72 41 -99.5t68 -27.5q47 0 74.5 29.5t35.5 105.5q2 27 5 87.5t4 137.5t2.5 162t0 163.5t-3.5 141 t-6 95.5q-2 18 -6 43t-14 45t-30.5 34.5t-55.5 14.5q-55 -2 -79 -40t-32 -95q-4 -33 -8 -96.5t-5 -142t-2 -163.5t0 -163zM559 1673q0 57 40 97t97 40t97.5 -39.5t40.5 -97.5q0 -57 -40 -97t-98 -40q-57 0 -97 40t-40 97z" />
<glyph unicode="&#xf7;" horiz-adv-x="413" d="M61 113q0 29 14.5 52t33 44.5t36 43t23.5 46.5q-18 -6 -35 -12q-31 -10 -47 -11q2 4 3 16.5t3 29t7 32t18 25.5q10 8 20 17.5t25 9.5q4 0 11 -1.5t11 -1.5q18 0 19 15q0 12 -7.5 21.5t-7.5 19.5q0 12 13 12q10 0 15 -7t11 -20q4 -10 9.5 -26.5t5.5 -26.5q0 -6 -4 -10 q23 0 36 -18.5t19 -44t9 -52.5t3 -43q6 -25 26.5 -47t20.5 -57q0 -16 -6 -40t-20.5 -45.5t-41 -35.5t-65.5 -14q-80 0 -119 43t-39 86z" />
<glyph unicode="&#xf8;" horiz-adv-x="983" d="M53 696q0 84 1 163t4 145.5t10 107.5q14 106 54 175t98.5 108t131 53t152.5 14q92 0 155.5 -16t114.5 -39q10 14 16.5 26.5t10.5 20.5q6 8 10 16q-2 2 2 0t12.5 -5t30.5 -13q53 -23 69.5 -66t-16.5 -96l-16 -35q10 -27 15.5 -59.5t9.5 -65.5q6 -70 10 -181t4 -232 t-5 -234.5t-18 -185.5q-23 -162 -117 -241t-288 -83q-92 0 -167 12.5t-132 47.5q-8 -16 -14.5 -26.5t-10.5 -18.5q-6 -8 -8 -17q-47 20 -45 21q-53 20 -69.5 63t14.5 99q2 6 18 32q-16 53 -22 111q-4 35 -7.5 98.5t-5.5 140t-2 160.5zM371 629l233 475v8q-2 20 -6 44 t-15.5 44.5t-32 34.5t-52.5 14q-57 0 -80 -39t-29 -98q-4 -25 -8 -78t-6 -120.5t-3 -142.5t-1 -142zM379 342l4 -29q12 -72 40.5 -100.5t65.5 -28.5q49 0 76 31t37 107q2 23 4 76t3 121.5t1 145v146.5z" />
<glyph unicode="&#xf9;" horiz-adv-x="935" d="M63 295v1143h211q45 0 74 -33t29 -86v-993q0 -72 24.5 -99.5t63.5 -27.5q47 0 70.5 29.5t23.5 105.5v1104h211q45 0 73.5 -33t28.5 -86v-1000q0 -184 -101 -265t-290 -81q-94 0 -171 13.5t-132 48.5t-85 98.5t-30 161.5zM147 1737q31 37 74 70.5t98 33.5q59 0 113 -53 l213 -209q-6 -6 -16.5 -17.5t-24.5 -22.5t-33.5 -20.5t-40.5 -11.5q-23 0 -44 8.5t-42 22.5z" />
<glyph unicode="&#xfa;" horiz-adv-x="935" d="M63 295v1143h211q45 0 74 -33t29 -86v-993q0 -72 24.5 -99.5t63.5 -27.5q47 0 70.5 29.5t23.5 105.5v1104h211q45 0 73.5 -33t28.5 -86v-1000q0 -184 -101 -265t-290 -81q-94 0 -171 13.5t-132 48.5t-85 98.5t-30 161.5zM324 1583q0 37 16 57.5t47 42.5l277 199 q12 -20 20 -43q8 -20 14.5 -43.5t6.5 -52.5q0 -57 -26 -90t-73 -54l-254 -110q-8 14 -14 31q-14 33 -14 63z" />
<glyph unicode="&#xfb;" horiz-adv-x="935" d="M63 295v1143h211q45 0 74 -33t29 -86v-993q0 -72 24.5 -99.5t63.5 -27.5q47 0 70.5 29.5t23.5 105.5v1104h211q45 0 73.5 -33t28.5 -86v-1000q0 -184 -101 -265t-290 -81q-94 0 -171 13.5t-132 48.5t-85 98.5t-30 161.5zM139 1505l246 348h115q45 0 69.5 -16t61.5 -68 l192 -264h-104q-43 0 -70.5 4t-48 16.5t-37 34t-37.5 56.5l-59 104l-59 -104q-20 -35 -37 -56.5t-37.5 -34t-48 -16.5t-70.5 -4h-76z" />
<glyph unicode="&#xfc;" horiz-adv-x="935" d="M63 295v1143h211q45 0 74 -33t29 -86v-993q0 -72 24.5 -99.5t63.5 -27.5q47 0 70.5 29.5t23.5 105.5v1104h211q45 0 73.5 -33t28.5 -86v-1000q0 -184 -101 -265t-290 -81q-94 0 -171 13.5t-132 48.5t-85 98.5t-30 161.5zM137 1673q0 57 40 97t97 40t97.5 -39.5 t40.5 -97.5q0 -57 -40 -97t-98 -40q-57 0 -97 40t-40 97zM518 1673q0 57 40 97t97 40t97.5 -39.5t40.5 -97.5q0 -57 -40 -97t-98 -40q-57 0 -97 40t-40 97z" />
<glyph unicode="&#x2c6;" horiz-adv-x="610" d="M-37 1505l246 348h115q45 0 69.5 -16t61.5 -68l192 -264h-104q-43 0 -71 4t-48.5 16.5t-36.5 34t-37 56.5l-59 104l-60 -104q-20 -35 -36.5 -56.5t-37 -34t-48 -16.5t-70.5 -4h-76z" />
<glyph unicode="&#x2dc;" horiz-adv-x="780" d="M86 1667q0 31 17.5 58.5t45 50t61.5 36t69 13.5q39 0 70.5 -14.5t60 -31t54 -30.5t50.5 -14q27 0 48.5 14t37.5 33q18 20 33 47q16 -12 29 -31q10 -16 20 -37.5t10 -48.5q0 -31 -17.5 -58.5t-45 -50t-61 -36t-68.5 -13.5q-39 0 -71 14.5t-60.5 31t-54 31t-50.5 14.5 q-29 0 -49 -15.5t-37 -32.5q-18 -23 -33 -47q-18 12 -30 31q-10 16 -19.5 36.5t-9.5 49.5z" />
<glyph unicode="&#x2000;" horiz-adv-x="1017" />
<glyph unicode="&#x2001;" horiz-adv-x="2034" />
<glyph unicode="&#x2002;" horiz-adv-x="1017" />
<glyph unicode="&#x2003;" horiz-adv-x="2034" />
<glyph unicode="&#x2004;" horiz-adv-x="678" />
<glyph unicode="&#x2005;" horiz-adv-x="508" />
<glyph unicode="&#x2006;" horiz-adv-x="339" />
<glyph unicode="&#x2007;" horiz-adv-x="339" />
<glyph unicode="&#x2008;" horiz-adv-x="254" />
<glyph unicode="&#x2009;" horiz-adv-x="406" />
<glyph unicode="&#x200a;" horiz-adv-x="113" />
<glyph unicode="&#x2010;" horiz-adv-x="659" d="M68 606v119q0 31 10 60.5t29.5 53t49 39t68.5 15.5h367v-119q0 -31 -10.5 -60.5t-31 -53t-49 -39t-67.5 -15.5h-366z" />
<glyph unicode="&#x2011;" horiz-adv-x="659" d="M68 606v119q0 31 10 60.5t29.5 53t49 39t68.5 15.5h367v-119q0 -31 -10.5 -60.5t-31 -53t-49 -39t-67.5 -15.5h-366z" />
<glyph unicode="&#x2012;" horiz-adv-x="659" d="M68 606v119q0 31 10 60.5t29.5 53t49 39t68.5 15.5h367v-119q0 -31 -10.5 -60.5t-31 -53t-49 -39t-67.5 -15.5h-366z" />
<glyph unicode="&#x2013;" horiz-adv-x="1024" d="M0 606v119q0 31 10 60.5t29.5 53t49.5 39t69 15.5h866v-119q0 -31 -10 -60.5t-30.5 -53t-49.5 -39t-68 -15.5h-866z" />
<glyph unicode="&#x2014;" horiz-adv-x="2183" d="M68 606v119q0 31 39 60.5t115.5 53t191.5 39t268 15.5h1434v-119q0 -31 -41 -60.5t-121 -53t-191.5 -39t-264.5 -15.5h-1430z" />
<glyph unicode="&#x2018;" horiz-adv-x="456" d="M31 1174q0 74 23.5 139t63.5 115.5t92 79t112 28.5q53 0 74.5 -33t21.5 -57q-68 -14 -121 -43q-47 -25 -85 -68t-40 -112q12 4 25 8q10 4 25.5 7t31.5 3q72 0 109.5 -48.5t37.5 -109.5q0 -70 -49 -119t-119 -49q-49 0 -86.5 20.5t-63.5 56.5t-39 82t-13 100z" />
<glyph unicode="&#x2019;" horiz-adv-x="458" d="M41 1006q68 14 121 43q47 25 84 67.5t41 112.5q-12 -6 -25 -10q-10 -4 -25.5 -6.5t-31.5 -2.5q-72 0 -110 48.5t-38 109.5q0 70 49.5 119t118.5 49q49 0 87 -20.5t63.5 -56.5t39 -83t13.5 -98q0 -74 -23.5 -139.5t-63.5 -115.5t-93 -79t-111 -29q-53 0 -74.5 33t-21.5 58 z" />
<glyph unicode="&#x201a;" horiz-adv-x="458" d="M41 -209q68 14 121 43q47 25 84 68t41 112q-12 -6 -25 -10q-10 -4 -25.5 -6t-31.5 -2q-72 0 -110 48.5t-38 109.5q0 70 49.5 119t118.5 49q49 0 87 -20.5t63.5 -56.5t39 -83t13.5 -99q0 -74 -23.5 -139t-63.5 -115.5t-93 -79t-111 -28.5q-53 0 -74.5 33t-21.5 57z" />
<glyph unicode="&#x201c;" horiz-adv-x="944" d="M45 1174q0 74 23.5 139t63.5 115.5t92 79t112 28.5q53 0 74.5 -33t21.5 -57q-68 -14 -121 -43q-47 -25 -85 -68t-40 -112q12 4 25 8q10 4 25.5 7t31.5 3q72 0 110 -48.5t38 -109.5q0 -70 -49.5 -119t-118.5 -49q-49 0 -87 20.5t-63.5 56.5t-39 82t-13.5 100zM510 1174 q0 74 23.5 139t63.5 115.5t92 79t112 28.5q53 0 74.5 -33t21.5 -57q-68 -14 -121 -43q-47 -25 -85 -68t-40 -112q12 4 25 8q10 4 25.5 7t31.5 3q72 0 110 -48.5t38 -109.5q0 -70 -49.5 -119t-118.5 -49q-49 0 -87 20.5t-63.5 56.5t-39 82t-13.5 100z" />
<glyph unicode="&#x201d;" horiz-adv-x="944" d="M47 1006q68 14 121 43q47 25 84 67.5t41 112.5q-12 -6 -25 -10q-10 -4 -25.5 -6.5t-31.5 -2.5q-72 0 -110 48.5t-38 109.5q0 70 49.5 119t118.5 49q49 0 87 -20.5t64 -56.5t39 -83t13 -98q0 -74 -23.5 -139.5t-63.5 -115.5t-93 -79t-111 -29q-53 0 -74.5 33t-21.5 58z M512 1006q68 14 121 43q47 25 84 67.5t41 112.5q-12 -6 -25 -10q-10 -4 -25.5 -6.5t-31.5 -2.5q-72 0 -110 48.5t-38 109.5q0 70 49.5 119t118.5 49q49 0 87 -20.5t63.5 -56.5t39 -83t13.5 -98q0 -74 -23.5 -139.5t-63.5 -115.5t-93 -79t-111 -29q-53 0 -74.5 33t-21.5 58z " />
<glyph unicode="&#x201e;" horiz-adv-x="944" d="M47 -209q68 14 121 43q47 25 84 68t41 112q-12 -6 -25 -10q-10 -4 -25.5 -6t-31.5 -2q-72 0 -110 48.5t-38 109.5q0 70 49.5 119t118.5 49q49 0 87 -20.5t64 -56.5t39 -83t13 -99q0 -74 -23.5 -139t-63.5 -115.5t-93 -79t-111 -28.5q-53 0 -74.5 33t-21.5 57zM512 -209 q68 14 121 43q47 25 84 68t41 112q-12 -6 -25 -10q-10 -4 -25.5 -6t-31.5 -2q-72 0 -110 48.5t-38 109.5q0 70 49.5 119t118.5 49q49 0 87 -20.5t63.5 -56.5t39 -83t13.5 -99q0 -74 -23.5 -139t-63.5 -115.5t-93 -79t-111 -28.5q-53 0 -74.5 33t-21.5 57z" />
<glyph unicode="&#x2022;" horiz-adv-x="831" d="M47 737q0 76 28.5 143.5t79 118t118 79t143.5 28.5t143.5 -28.5t117.5 -79t78.5 -118t28.5 -143.5t-28.5 -143.5t-78.5 -117.5t-117.5 -78.5t-143.5 -28.5t-143.5 28.5t-118 78.5t-79 117.5t-28.5 143.5z" />
<glyph unicode="&#x2026;" horiz-adv-x="1294" d="M41 166q0 18 5 40.5t18.5 42t35 35t52.5 21.5q10 2 22 3t23 1q0 29 10 53.5t26 24.5t20.5 -5t4.5 -9q0 -8 -10 -27.5t-10 -36.5l13 -1t29.5 -5t34 -10t27.5 -19q10 -8 30.5 -40.5t20.5 -77.5q0 -68 -45 -118t-137 -50h-10q-37 0 -70 18q-37 25 -63.5 67t-26.5 93z M471 166q0 18 5 40.5t18.5 42t35 35t52.5 21.5q10 2 22 3t23 1q0 29 10 53.5t27 24.5q16 0 20 -5t4 -9q0 -8 -10 -27.5t-10 -36.5l13 -1q13 -1 29.5 -5t34 -10t27.5 -19q10 -8 30.5 -40.5t20.5 -77.5q0 -68 -45 -118t-137 -50h-10q-37 0 -70 18q-37 25 -63.5 67t-26.5 93z M901 166q0 18 5 40.5t18.5 42t35 35t52.5 21.5q10 2 22.5 3t22.5 1q0 29 10 53.5t27 24.5q16 0 20 -5t4 -9q0 -8 -10 -27.5t-10 -36.5l13 -1q13 -1 29.5 -5t34 -10t27.5 -19q10 -8 30.5 -40.5t20.5 -77.5q0 -68 -45 -118t-137 -50h-10q-37 0 -70 18q-37 25 -63.5 67 t-26.5 93z" />
<glyph unicode="&#x202f;" horiz-adv-x="406" />
<glyph unicode="&#x205f;" horiz-adv-x="508" />
<glyph unicode="&#x2122;" horiz-adv-x="1419" d="M51 1454v23h574v-23q0 -37 -20.5 -71.5t-80.5 -34.5h-100v-723h-119q-27 0 -44 17t-17 50v656h-92q-59 0 -80 34.5t-21 71.5zM635 692v783h141q53 0 82 -21.5t45 -81.5q2 -12 8.5 -33.5t13.5 -50t15 -61.5l16 -66q20 -76 43 -166l43 172q16 68 33 130.5t21 80.5 q12 45 39 72t84 27q18 -2 40.5 -1t43.5 1h47v-852h-125q-25 0 -41.5 16t-16.5 51v232q0 92 2 202l-125 -501q-4 -2 -12 -2h-39q-41 0 -64.5 25.5t-39.5 74.5q-4 10 -12.5 43t-19.5 76t-23.5 91t-22.5 89t-18.5 69.5t-8.5 32.5v-499h-88q-27 0 -44 17t-17 50z" />
<glyph unicode="&#x25fc;" horiz-adv-x="1433" d="M0 0v1434h1434v-1434h-1434z" />
</font>
</defs>
</svg>
